<?xml version="1.0" encoding="UTF-8"?>
<!DOCTYPE svg PUBLIC "-//W3C//DTD SVG 1.1//EN" "http://www.w3.org/Graphics/SVG/1.1/DTD/svg11.dtd">
<svg xmlns="http://www.w3.org/2000/svg" version="1.1" width="366px" height="366px" style="shape-rendering:geometricPrecision; text-rendering:geometricPrecision; image-rendering:optimizeQuality; fill-rule:evenodd; clip-rule:evenodd" xmlns:xlink="http://www.w3.org/1999/xlink">
<g><path style="opacity:0.987" fill="#fad509" d="M 163.5,-0.5 C 170.833,-0.5 178.167,-0.5 185.5,-0.5C 185.5,11.1667 185.5,22.8333 185.5,34.5C 185.777,37.4475 185.444,40.2809 184.5,43C 173.462,43.8376 162.462,45.0042 151.5,46.5C 142.06,49.0574 132.727,51.8907 123.5,55C 120.893,56.5722 118.559,58.4055 116.5,60.5C 110.469,61.2841 105.469,63.9508 101.5,68.5C 95.985,69.7602 91.6517,72.7602 88.5,77.5C 84.6194,78.4411 81.9527,80.7744 80.5,84.5C 78.9557,84.7031 77.6223,85.3698 76.5,86.5C 73.7366,89.2515 71.4033,92.2515 69.5,95.5C 66.8666,97.1321 64.5333,99.1321 62.5,101.5C 59.1852,103.512 56.0185,105.845 53,108.5C 50.8099,113.56 48.1432,118.227 45,122.5C 44.1245,125.883 43.1245,129.216 42,132.5C 39.9592,133.423 37.7925,133.756 35.5,133.5C 34.4324,132.566 33.099,132.232 31.5,132.5C 31.5,131.167 31.5,129.833 31.5,128.5C 23.8416,127.25 16.1749,125.917 8.5,124.5C 25.8086,74.3528 58.4753,37.8528 106.5,15C 124.903,7.15187 143.903,1.9852 163.5,-0.5 Z"/></g>
<g><path style="opacity:0.988" fill="#119c55" d="M 185.5,-0.5 C 190.833,-0.5 196.167,-0.5 201.5,-0.5C 269.847,9.01468 319.347,44.6813 350,106.5C 353.333,114.334 356.167,122.334 358.5,130.5C 348.992,133.555 339.326,136.222 329.5,138.5C 325.993,139.006 322.826,138.34 320,136.5C 319.667,136.833 319.333,137.167 319,137.5C 317.307,129.915 313.974,123.249 309,117.5C 308.824,114.118 308.324,110.785 307.5,107.5C 303.779,104.76 300.113,102.094 296.5,99.5C 296.611,98.8826 296.944,98.3826 297.5,98C 293.738,90.4099 288.405,84.2432 281.5,79.5C 275.519,72.7998 269.686,65.7998 264,58.5C 260.085,59.165 256.752,57.8317 254,54.5C 249.44,53.0721 244.94,51.7388 240.5,50.5C 240.167,50.5 239.833,50.5 239.5,50.5C 239.489,48.9826 238.823,47.8159 237.5,47C 234.763,45.9365 232.263,44.4365 230,42.5C 222.732,41.6101 215.565,40.2768 208.5,38.5C 207.866,37.0532 206.699,36.3866 205,36.5C 199.567,35.2332 194.067,34.5665 188.5,34.5C 187.5,34.5 186.5,34.5 185.5,34.5C 185.5,22.8333 185.5,11.1667 185.5,-0.5 Z"/></g>
<g><path style="opacity:1" fill="#4a946d" d="M 188.5,35.5 C 188.5,35.1667 188.5,34.8333 188.5,34.5C 194.067,34.5665 199.567,35.2332 205,36.5C 206.699,36.3866 207.866,37.0532 208.5,38.5C 201.868,37.2836 195.201,36.2836 188.5,35.5 Z"/></g>
<g><path style="opacity:1" fill="#f8ed9b" d="M 185.5,34.5 C 186.5,34.5 187.5,34.5 188.5,34.5C 188.5,34.8333 188.5,35.1667 188.5,35.5C 187.616,38.0232 186.782,40.6898 186,43.5C 184.295,44.7633 182.628,45.0966 181,44.5C 158.513,45.831 137.013,51.1644 116.5,60.5C 118.559,58.4055 120.893,56.5722 123.5,55C 132.727,51.8907 142.06,49.0574 151.5,46.5C 162.462,45.0042 173.462,43.8376 184.5,43C 185.444,40.2809 185.777,37.4475 185.5,34.5 Z"/></g>
<g><path style="opacity:1" fill="#44956d" d="M 208.5,38.5 C 215.565,40.2768 222.732,41.6101 230,42.5C 232.263,44.4365 234.763,45.9365 237.5,47C 238.823,47.8159 239.489,48.9826 239.5,50.5C 229.394,45.691 219.061,41.691 208.5,38.5 Z"/></g>
<g><path style="opacity:1" fill="#319762" d="M 240.5,50.5 C 244.94,51.7388 249.44,53.0721 254,54.5C 256.752,57.8317 260.085,59.165 264,58.5C 269.686,65.7998 275.519,72.7998 281.5,79.5C 288.405,84.2432 293.738,90.4099 297.5,98C 296.944,98.3826 296.611,98.8826 296.5,99.5C 289.112,89.6055 280.779,80.4388 271.5,72C 261.518,64.1608 251.185,56.9941 240.5,50.5 Z"/></g>
<g><path style="opacity:1" fill="#f9f09a" d="M 116.5,60.5 C 111.984,63.9266 106.984,66.5932 101.5,68.5C 105.469,63.9508 110.469,61.2841 116.5,60.5 Z"/></g>
<g><path style="opacity:1" fill="#f7ee97" d="M 101.5,68.5 C 97.551,72.0409 93.2176,75.0409 88.5,77.5C 91.6517,72.7602 95.985,69.7602 101.5,68.5 Z"/></g>
<g><path style="opacity:0.988" fill="#040404" d="M 275.5,176.5 C 271.833,176.5 268.167,176.5 264.5,176.5C 264.5,183.5 264.5,190.5 264.5,197.5C 261.167,197.5 257.833,197.5 254.5,197.5C 254.5,204.5 254.5,211.5 254.5,218.5C 257.833,218.5 261.167,218.5 264.5,218.5C 264.5,222.167 264.5,225.833 264.5,229.5C 257.5,229.5 250.5,229.5 243.5,229.5C 243.5,222.5 243.5,215.5 243.5,208.5C 240.167,208.5 236.833,208.5 233.5,208.5C 233.5,204.833 233.5,201.167 233.5,197.5C 229.833,197.5 226.167,197.5 222.5,197.5C 222.5,194.167 222.5,190.833 222.5,187.5C 219.167,187.5 215.833,187.5 212.5,187.5C 212.5,183.833 212.5,180.167 212.5,176.5C 205.5,176.5 198.5,176.5 191.5,176.5C 191.5,180.167 191.5,183.833 191.5,187.5C 184.5,187.5 177.5,187.5 170.5,187.5C 170.5,190.833 170.5,194.167 170.5,197.5C 163.5,197.5 156.5,197.5 149.5,197.5C 149.5,208.167 149.5,218.833 149.5,229.5C 146.167,229.5 142.833,229.5 139.5,229.5C 139.5,222.5 139.5,215.5 139.5,208.5C 132.5,208.5 125.5,208.5 118.5,208.5C 118.5,215.5 118.5,222.5 118.5,229.5C 111.5,229.5 104.5,229.5 97.5,229.5C 97.5,225.833 97.5,222.167 97.5,218.5C 100.833,218.5 104.167,218.5 107.5,218.5C 107.5,211.5 107.5,204.5 107.5,197.5C 104.167,197.5 100.833,197.5 97.5,197.5C 97.5,190.5 97.5,183.5 97.5,176.5C 93.8333,176.5 90.1667,176.5 86.5,176.5C 86.5,162.5 86.5,148.5 86.5,134.5C 90.1667,134.5 93.8333,134.5 97.5,134.5C 97.5,127.5 97.5,120.5 97.5,113.5C 100.833,113.5 104.167,113.5 107.5,113.5C 107.5,110.167 107.5,106.833 107.5,103.5C 111.167,103.5 114.833,103.5 118.5,103.5C 118.5,99.8333 118.5,96.1667 118.5,92.5C 125.5,92.5 132.5,92.5 139.5,92.5C 139.5,89.1667 139.5,85.8333 139.5,82.5C 167.167,82.5 194.833,82.5 222.5,82.5C 222.5,85.8333 222.5,89.1667 222.5,92.5C 229.5,92.5 236.5,92.5 243.5,92.5C 243.5,85.5 243.5,78.5 243.5,71.5C 247.167,71.5 250.833,71.5 254.5,71.5C 254.5,78.5 254.5,85.5 254.5,92.5C 261.5,92.5 268.5,92.5 275.5,92.5C 275.5,96.1667 275.5,99.8333 275.5,103.5C 268.5,103.5 261.5,103.5 254.5,103.5C 254.5,106.833 254.5,110.167 254.5,113.5C 257.833,113.5 261.167,113.5 264.5,113.5C 264.5,120.5 264.5,127.5 264.5,134.5C 268.167,134.5 271.833,134.5 275.5,134.5C 275.5,148.5 275.5,162.5 275.5,176.5 Z"/></g>
<g><path style="opacity:1" fill="#faf1a0" d="M 88.5,77.5 C 86.4309,80.5725 83.7642,82.9059 80.5,84.5C 81.9527,80.7744 84.6194,78.4411 88.5,77.5 Z"/></g>
<g><path style="opacity:0.502" fill="#faf09a" d="M 80.5,84.5 C 77.1667,88.5 73.5,92.1667 69.5,95.5C 71.4033,92.2515 73.7366,89.2515 76.5,86.5C 77.6223,85.3698 78.9557,84.7031 80.5,84.5 Z"/></g>
<g><path style="opacity:1" fill="#f8ed97" d="M 69.5,95.5 C 65.2085,101.792 60.5419,107.792 55.5,113.5C 55.3433,112.127 55.51,110.793 56,109.5C 58.7585,107.249 60.9252,104.582 62.5,101.5C 64.5333,99.1321 66.8666,97.1321 69.5,95.5 Z"/></g>
<g><path style="opacity:1" fill="#349765" d="M 296.5,99.5 C 300.113,102.094 303.779,104.76 307.5,107.5C 308.324,110.785 308.824,114.118 309,117.5C 313.974,123.249 317.307,129.915 319,137.5C 319.333,137.167 319.667,136.833 320,136.5C 322.826,138.34 325.993,139.006 329.5,138.5C 328.003,139.306 326.336,139.972 324.5,140.5C 323.702,140.957 323.369,141.624 323.5,142.5C 322.122,143.234 320.622,143.901 319,144.5C 313.084,128.668 305.584,113.668 296.5,99.5 Z"/></g>
<g><path style="opacity:1" fill="#efd52d" d="M 62.5,101.5 C 60.9252,104.582 58.7585,107.249 56,109.5C 55.51,110.793 55.3433,112.127 55.5,113.5C 54.2921,114.234 52.9587,114.567 51.5,114.5C 49.9839,118.382 48.6506,122.382 47.5,126.5C 45.3991,129.179 43.3991,132.012 41.5,135C 39.1195,135.738 37.1195,135.238 35.5,133.5C 37.7925,133.756 39.9592,133.423 42,132.5C 43.1245,129.216 44.1245,125.883 45,122.5C 48.1432,118.227 50.8099,113.56 53,108.5C 56.0185,105.845 59.1852,103.512 62.5,101.5 Z"/></g>
<g><path style="opacity:1" fill="#f5e77f" d="M 55.5,113.5 C 53.5824,118.343 50.9157,122.677 47.5,126.5C 48.6506,122.382 49.9839,118.382 51.5,114.5C 52.9587,114.567 54.2921,114.234 55.5,113.5 Z"/></g>
<g><path style="opacity:1" fill="#e6d833" d="M 8.5,124.5 C 16.1749,125.917 23.8416,127.25 31.5,128.5C 31.5,129.833 31.5,131.167 31.5,132.5C 33.099,132.232 34.4324,132.566 35.5,133.5C 34.1667,133.5 32.8333,133.5 31.5,133.5C 29.901,133.768 28.5676,133.434 27.5,132.5C 27.3893,131.883 27.056,131.383 26.5,131C 22.144,129.816 17.8107,128.649 13.5,127.5C 11.4352,127.483 9.43525,127.15 7.5,126.5C 7.83333,125.833 8.16667,125.167 8.5,124.5 Z"/></g>
<g><path style="opacity:1" fill="#479070" d="M 7.5,126.5 C 9.43525,127.15 11.4352,127.483 13.5,127.5C 14.8333,128.5 16.1667,129.5 17.5,130.5C 14.1226,130.041 10.7893,129.374 7.5,128.5C 7.5,127.833 7.5,127.167 7.5,126.5 Z"/></g>
<g><path style="opacity:1" fill="#bfd76a" d="M 13.5,127.5 C 17.8107,128.649 22.144,129.816 26.5,131C 27.056,131.383 27.3893,131.883 27.5,132.5C 24.4021,132.244 21.4021,131.578 18.5,130.5C 18.1667,130.5 17.8333,130.5 17.5,130.5C 16.1667,129.5 14.8333,128.5 13.5,127.5 Z"/></g>
<g><path style="opacity:1" fill="#448f70" d="M 18.5,130.5 C 21.4021,131.578 24.4021,132.244 27.5,132.5C 28.5676,133.434 29.901,133.768 31.5,133.5C 34.381,135.68 37.7144,136.68 41.5,136.5C 41.5,136.833 41.5,137.167 41.5,137.5C 39.5,137.5 37.5,137.5 35.5,137.5C 30.2433,135.581 24.9099,133.747 19.5,132C 18.944,131.617 18.6107,131.117 18.5,130.5 Z"/></g>
<g><path style="opacity:0.502" fill="#e0e590" d="M 47.5,126.5 C 46.7858,130.689 44.7858,134.022 41.5,136.5C 37.7144,136.68 34.381,135.68 31.5,133.5C 32.8333,133.5 34.1667,133.5 35.5,133.5C 37.1195,135.238 39.1195,135.738 41.5,135C 43.3991,132.012 45.3991,129.179 47.5,126.5 Z"/></g>
<g><path style="opacity:1" fill="#4a856e" d="M 358.5,130.5 C 358.5,130.833 358.5,131.167 358.5,131.5C 348.151,134.839 337.818,138.172 327.5,141.5C 326.167,141.833 324.833,142.167 323.5,142.5C 323.369,141.624 323.702,140.957 324.5,140.5C 326.336,139.972 328.003,139.306 329.5,138.5C 339.326,136.222 348.992,133.555 358.5,130.5 Z"/></g>
<g><path style="opacity:0.983" fill="#068bc2" d="M 7.5,128.5 C 10.7893,129.374 14.1226,130.041 17.5,130.5C 17.8333,130.5 18.1667,130.5 18.5,130.5C 18.6107,131.117 18.944,131.617 19.5,132C 24.9099,133.747 30.2433,135.581 35.5,137.5C 39.3515,138.986 43.3515,140.319 47.5,141.5C 45.5378,151.785 43.2044,161.952 40.5,172C 41.4396,186.146 41.773,200.313 41.5,214.5C 42.3409,221.465 42.6743,228.465 42.5,235.5C 44.2012,235.034 45.7012,235.034 47,235.5C 46.293,241.593 48.4597,246.259 53.5,249.5C 54.9117,251.604 55.9117,253.937 56.5,256.5C 57.8003,261.374 58.967,266.374 60,271.5C 61.7547,272.67 62.7547,274.337 63,276.5C 72.0008,286.932 81.1675,297.265 90.5,307.5C 87.2444,312.936 83.7444,318.269 80,323.5C 78.9887,324.337 77.8221,324.67 76.5,324.5C 76.3259,326.861 75.9926,329.194 75.5,331.5C 31.9324,299.382 6.59906,256.382 -0.5,202.5C -0.5,189.167 -0.5,175.833 -0.5,162.5C 1.01826,150.911 3.68492,139.578 7.5,128.5 Z"/></g>
<g><path style="opacity:0.979" fill="#830369" d="M 359.5,132.5 C 361.909,142.545 363.909,152.545 365.5,162.5C 365.5,175.833 365.5,189.167 365.5,202.5C 359.307,250.719 337.974,290.886 301.5,323C 298.122,326.015 294.456,328.515 290.5,330.5C 289.279,329.972 288.113,329.305 287,328.5C 286.07,325.638 284.403,323.305 282,321.5C 280.907,314.593 277.074,310.26 270.5,308.5C 270.529,306.226 270.362,303.893 270,301.5C 274.904,299.719 278.237,296.386 280,291.5C 284.463,288.876 287.629,285.21 289.5,280.5C 291.942,277.271 294.608,274.271 297.5,271.5C 301.422,268.222 304.922,264.555 308,260.5C 309,257.833 310,255.167 311,252.5C 314.4,246.035 318.067,239.702 322,233.5C 323.241,228.57 324.075,223.57 324.5,218.5C 324.232,216.901 324.566,215.568 325.5,214.5C 327.085,212.169 328.251,209.503 329,206.5C 329.18,203.044 329.847,199.711 331,196.5C 331.71,178.781 331.377,161.115 330,143.5C 339.459,138.957 349.292,135.29 359.5,132.5 Z"/></g>
<g><path style="opacity:1" fill="#4795ad" d="M 35.5,137.5 C 37.5,137.5 39.5,137.5 41.5,137.5C 44.994,137.614 47.994,138.78 50.5,141C 42.5579,166.216 40.5579,191.716 44.5,217.5C 43.7281,216.306 42.7281,215.306 41.5,214.5C 41.773,200.313 41.4396,186.146 40.5,172C 43.2044,161.952 45.5378,151.785 47.5,141.5C 43.3515,140.319 39.3515,138.986 35.5,137.5 Z"/></g>
<g><path style="opacity:0.924" fill="#040404" d="M 86.5,176.5 C 86.5,187.167 86.5,197.833 86.5,208.5C 83.1667,208.5 79.8333,208.5 76.5,208.5C 76.5,197.833 76.5,187.167 76.5,176.5C 79.8333,176.5 83.1667,176.5 86.5,176.5 Z"/></g>
<g><path style="opacity:1" fill="#fafcfb" d="M 86.5,176.5 C 90.1667,176.5 93.8333,176.5 97.5,176.5C 97.5,183.5 97.5,190.5 97.5,197.5C 100.833,197.5 104.167,197.5 107.5,197.5C 107.5,204.5 107.5,211.5 107.5,218.5C 104.167,218.5 100.833,218.5 97.5,218.5C 97.5,215.167 97.5,211.833 97.5,208.5C 93.8333,208.5 90.1667,208.5 86.5,208.5C 86.5,197.833 86.5,187.167 86.5,176.5 Z"/></g>
<g><path style="opacity:1" fill="#fafcfb" d="M 222.5,197.5 C 226.167,197.5 229.833,197.5 233.5,197.5C 233.5,201.167 233.5,204.833 233.5,208.5C 236.833,208.5 240.167,208.5 243.5,208.5C 243.5,215.5 243.5,222.5 243.5,229.5C 240.167,229.5 236.833,229.5 233.5,229.5C 233.5,232.833 233.5,236.167 233.5,239.5C 226.5,239.5 219.5,239.5 212.5,239.5C 212.5,243.167 212.5,246.833 212.5,250.5C 191.5,250.5 170.5,250.5 149.5,250.5C 149.5,246.833 149.5,243.167 149.5,239.5C 142.5,239.5 135.5,239.5 128.5,239.5C 128.5,236.167 128.5,232.833 128.5,229.5C 125.167,229.5 121.833,229.5 118.5,229.5C 118.5,222.5 118.5,215.5 118.5,208.5C 125.5,208.5 132.5,208.5 139.5,208.5C 139.5,215.5 139.5,222.5 139.5,229.5C 142.833,229.5 146.167,229.5 149.5,229.5C 149.5,218.833 149.5,208.167 149.5,197.5C 156.5,197.5 163.5,197.5 170.5,197.5C 170.5,194.167 170.5,190.833 170.5,187.5C 177.5,187.5 184.5,187.5 191.5,187.5C 191.5,183.833 191.5,180.167 191.5,176.5C 198.5,176.5 205.5,176.5 212.5,176.5C 212.5,180.167 212.5,183.833 212.5,187.5C 215.833,187.5 219.167,187.5 222.5,187.5C 222.5,190.833 222.5,194.167 222.5,197.5 Z"/></g>
<g><path style="opacity:1" fill="#fafcfb" d="M 275.5,176.5 C 275.5,187.167 275.5,197.833 275.5,208.5C 271.833,208.5 268.167,208.5 264.5,208.5C 264.5,211.833 264.5,215.167 264.5,218.5C 261.167,218.5 257.833,218.5 254.5,218.5C 254.5,211.5 254.5,204.5 254.5,197.5C 257.833,197.5 261.167,197.5 264.5,197.5C 264.5,190.5 264.5,183.5 264.5,176.5C 268.167,176.5 271.833,176.5 275.5,176.5 Z"/></g>
<g><path style="opacity:0.889" fill="#030504" d="M 275.5,176.5 C 278.833,176.5 282.167,176.5 285.5,176.5C 285.5,187.167 285.5,197.833 285.5,208.5C 282.167,208.5 278.833,208.5 275.5,208.5C 275.5,197.833 275.5,187.167 275.5,176.5 Z"/></g>
<g><path style="opacity:1" fill="#040404" d="M 222.5,197.5 C 222.5,208.167 222.5,218.833 222.5,229.5C 219.167,229.5 215.833,229.5 212.5,229.5C 212.5,218.833 212.5,208.167 212.5,197.5C 215.833,197.5 219.167,197.5 222.5,197.5 Z"/></g>
<g><path style="opacity:1" fill="#6c3261" d="M 358.5,131.5 C 359.167,131.5 359.5,131.833 359.5,132.5C 349.292,135.29 339.459,138.957 330,143.5C 331.377,161.115 331.71,178.781 331,196.5C 329.847,199.711 329.18,203.044 329,206.5C 328.251,209.503 327.085,212.169 325.5,214.5C 331.259,190.314 331.926,165.981 327.5,141.5C 337.818,138.172 348.151,134.839 358.5,131.5 Z"/></g>
<g><path style="opacity:0.924" fill="#030504" d="M 86.5,208.5 C 90.1667,208.5 93.8333,208.5 97.5,208.5C 97.5,211.833 97.5,215.167 97.5,218.5C 93.8333,218.5 90.1667,218.5 86.5,218.5C 86.5,215.167 86.5,211.833 86.5,208.5 Z"/></g>
<g><path style="opacity:1" fill="#040605" d="M 275.5,208.5 C 275.5,211.833 275.5,215.167 275.5,218.5C 271.833,218.5 268.167,218.5 264.5,218.5C 264.5,215.167 264.5,211.833 264.5,208.5C 268.167,208.5 271.833,208.5 275.5,208.5 Z"/></g>
<g><path style="opacity:0.975" fill="#030504" d="M 243.5,229.5 C 243.5,232.833 243.5,236.167 243.5,239.5C 240.167,239.5 236.833,239.5 233.5,239.5C 233.5,236.167 233.5,232.833 233.5,229.5C 236.833,229.5 240.167,229.5 243.5,229.5 Z"/></g>
<g><path style="opacity:0.898" fill="#0a0b0b" d="M 118.5,229.5 C 121.833,229.5 125.167,229.5 128.5,229.5C 128.5,232.833 128.5,236.167 128.5,239.5C 125.167,239.5 121.833,239.5 118.5,239.5C 118.5,236.167 118.5,232.833 118.5,229.5 Z"/></g>
<g><path style="opacity:1" fill="#298db2" d="M 41.5,214.5 C 42.7281,215.306 43.7281,216.306 44.5,217.5C 47.0531,228.176 50.0531,238.843 53.5,249.5C 48.4597,246.259 46.293,241.593 47,235.5C 45.7012,235.034 44.2012,235.034 42.5,235.5C 42.6743,228.465 42.3409,221.465 41.5,214.5 Z"/></g>
<g><path style="opacity:1" fill="#6f295e" d="M 324.5,218.5 C 324.075,223.57 323.241,228.57 322,233.5C 318.067,239.702 314.4,246.035 311,252.5C 310,255.167 309,257.833 308,260.5C 304.922,264.555 301.422,268.222 297.5,271.5C 309.404,255.36 318.404,237.693 324.5,218.5 Z"/></g>
<g><path style="opacity:1" fill="#050404" d="M 128.5,239.5 C 135.5,239.5 142.5,239.5 149.5,239.5C 149.5,243.167 149.5,246.833 149.5,250.5C 170.5,250.5 191.5,250.5 212.5,250.5C 212.5,246.833 212.5,243.167 212.5,239.5C 219.5,239.5 226.5,239.5 233.5,239.5C 233.5,243.167 233.5,246.833 233.5,250.5C 229.833,250.5 226.167,250.5 222.5,250.5C 222.5,253.833 222.5,257.167 222.5,260.5C 219.167,260.5 215.833,260.5 212.5,260.5C 212.5,267.5 212.5,274.5 212.5,281.5C 215.833,281.5 219.167,281.5 222.5,281.5C 222.5,285.167 222.5,288.833 222.5,292.5C 226.167,292.5 229.833,292.5 233.5,292.5C 233.5,299.5 233.5,306.5 233.5,313.5C 240.5,313.5 247.5,313.5 254.5,313.5C 254.5,314.833 254.5,316.167 254.5,317.5C 249.093,320.247 243.427,322.247 237.5,323.5C 235.901,323.232 234.568,323.566 233.5,324.5C 229.773,325.348 226.107,326.348 222.5,327.5C 222.5,322.833 222.5,318.167 222.5,313.5C 219.167,313.5 215.833,313.5 212.5,313.5C 212.5,318.833 212.5,324.167 212.5,329.5C 209.038,330.482 205.371,330.815 201.5,330.5C 201.5,328.167 201.5,325.833 201.5,323.5C 198.167,323.5 194.833,323.5 191.5,323.5C 191.5,325.833 191.5,328.167 191.5,330.5C 184.5,330.5 177.5,330.5 170.5,330.5C 170.5,328.167 170.5,325.833 170.5,323.5C 167.167,323.5 163.833,323.5 160.5,323.5C 160.5,324.833 160.5,326.167 160.5,327.5C 159.833,327.5 159.167,327.5 158.5,327.5C 156.095,326.232 153.428,325.565 150.5,325.5C 150.167,325.5 149.833,325.5 149.5,325.5C 149.5,321.5 149.5,317.5 149.5,313.5C 146.167,313.5 142.833,313.5 139.5,313.5C 139.5,316.167 139.5,318.833 139.5,321.5C 139.167,321.5 138.833,321.5 138.5,321.5C 135.621,319.032 132.288,317.365 128.5,316.5C 126.181,316.008 124.181,315.008 122.5,313.5C 124.5,313.5 126.5,313.5 128.5,313.5C 128.5,306.5 128.5,299.5 128.5,292.5C 132.167,292.5 135.833,292.5 139.5,292.5C 139.5,288.833 139.5,285.167 139.5,281.5C 142.833,281.5 146.167,281.5 149.5,281.5C 149.5,274.5 149.5,267.5 149.5,260.5C 146.167,260.5 142.833,260.5 139.5,260.5C 139.5,257.167 139.5,253.833 139.5,250.5C 135.833,250.5 132.167,250.5 128.5,250.5C 128.5,246.833 128.5,243.167 128.5,239.5 Z"/></g>
<g><path style="opacity:1" fill="#fbfcfc" d="M 170.5,260.5 C 177.5,260.5 184.5,260.5 191.5,260.5C 191.5,264.167 191.5,267.833 191.5,271.5C 184.5,271.5 177.5,271.5 170.5,271.5C 170.5,267.833 170.5,264.167 170.5,260.5 Z"/></g>
<g><path style="opacity:0.935" fill="#030504" d="M 222.5,260.5 C 226.167,260.5 229.833,260.5 233.5,260.5C 233.5,264.167 233.5,267.833 233.5,271.5C 233.5,267.833 233.5,264.167 233.5,260.5C 229.833,260.5 226.167,260.5 222.5,260.5 Z"/></g>
<g><path style="opacity:0.963" fill="#030504" d="M 139.5,260.5 C 139.5,264.167 139.5,267.833 139.5,271.5C 135.833,271.5 132.167,271.5 128.5,271.5C 128.5,267.833 128.5,264.167 128.5,260.5C 132.167,260.5 135.833,260.5 139.5,260.5 Z"/></g>
<g><path style="opacity:0.91" fill="#030504" d="M 128.5,271.5 C 128.5,274.833 128.5,278.167 128.5,281.5C 125.167,281.5 121.833,281.5 118.5,281.5C 118.5,278.167 118.5,274.833 118.5,271.5C 121.833,271.5 125.167,271.5 128.5,271.5 Z"/></g>
<g><path style="opacity:0.975" fill="#030504" d="M 233.5,271.5 C 236.833,271.5 240.167,271.5 243.5,271.5C 243.5,274.833 243.5,278.167 243.5,281.5C 243.5,278.167 243.5,274.833 243.5,271.5C 240.167,271.5 236.833,271.5 233.5,271.5 Z"/></g>
<g><path style="opacity:0.95" fill="#050605" d="M 118.5,281.5 C 118.5,285.167 118.5,288.833 118.5,292.5C 114.833,292.5 111.167,292.5 107.5,292.5C 107.5,288.833 107.5,285.167 107.5,281.5C 111.167,281.5 114.833,281.5 118.5,281.5 Z"/></g>
<g><path style="opacity:1" fill="#fafbfa" d="M 139.5,260.5 C 142.833,260.5 146.167,260.5 149.5,260.5C 149.5,267.5 149.5,274.5 149.5,281.5C 146.167,281.5 142.833,281.5 139.5,281.5C 139.5,285.167 139.5,288.833 139.5,292.5C 135.833,292.5 132.167,292.5 128.5,292.5C 128.5,299.5 128.5,306.5 128.5,313.5C 126.5,313.5 124.5,313.5 122.5,313.5C 117.281,311.608 112.281,309.275 107.5,306.5C 107.5,305.833 107.5,305.167 107.5,304.5C 107.5,300.5 107.5,296.5 107.5,292.5C 111.167,292.5 114.833,292.5 118.5,292.5C 118.5,288.833 118.5,285.167 118.5,281.5C 121.833,281.5 125.167,281.5 128.5,281.5C 128.5,278.167 128.5,274.833 128.5,271.5C 132.167,271.5 135.833,271.5 139.5,271.5C 139.5,267.833 139.5,264.167 139.5,260.5 Z"/></g>
<g><path style="opacity:0.974" fill="#040605" d="M 243.5,281.5 C 247.167,281.5 250.833,281.5 254.5,281.5C 254.5,285.167 254.5,288.833 254.5,292.5C 254.5,288.833 254.5,285.167 254.5,281.5C 250.833,281.5 247.167,281.5 243.5,281.5 Z"/></g>
<g><path style="opacity:1" fill="#fafcfb" d="M 222.5,260.5 C 222.5,264.167 222.5,267.833 222.5,271.5C 226.167,271.5 229.833,271.5 233.5,271.5C 233.5,274.833 233.5,278.167 233.5,281.5C 236.833,281.5 240.167,281.5 243.5,281.5C 243.5,285.167 243.5,288.833 243.5,292.5C 247.167,292.5 250.833,292.5 254.5,292.5C 254.5,299.5 254.5,306.5 254.5,313.5C 247.5,313.5 240.5,313.5 233.5,313.5C 233.5,306.5 233.5,299.5 233.5,292.5C 229.833,292.5 226.167,292.5 222.5,292.5C 222.5,288.833 222.5,285.167 222.5,281.5C 219.167,281.5 215.833,281.5 212.5,281.5C 212.5,274.5 212.5,267.5 212.5,260.5C 215.833,260.5 219.167,260.5 222.5,260.5 Z"/></g>
<g><path style="opacity:1" fill="#4593b1" d="M 56.5,256.5 C 66.0504,274.936 78.0504,291.602 92.5,306.5C 91.8333,306.833 91.1667,307.167 90.5,307.5C 81.1675,297.265 72.0008,286.932 63,276.5C 62.7547,274.337 61.7547,272.67 60,271.5C 58.967,266.374 57.8003,261.374 56.5,256.5 Z"/></g>
<g><path style="opacity:1" fill="#0c0606" d="M 107.5,292.5 C 107.5,296.5 107.5,300.5 107.5,304.5C 104.959,303.312 102.459,301.978 100,300.5C 99.0979,300.743 98.2646,301.077 97.5,301.5C 97.5,298.5 97.5,295.5 97.5,292.5C 100.833,292.5 104.167,292.5 107.5,292.5 Z"/></g>
<g><path style="opacity:1" fill="#752a61" d="M 289.5,280.5 C 287.629,285.21 284.463,288.876 280,291.5C 278.237,296.386 274.904,299.719 270,301.5C 270.362,303.893 270.529,306.226 270.5,308.5C 270.5,309.167 270.5,309.833 270.5,310.5C 270.167,310.5 269.833,310.5 269.5,310.5C 268.949,307.733 267.616,305.4 265.5,303.5C 273.494,295.84 281.494,288.173 289.5,280.5 Z"/></g>
<g><path style="opacity:1" fill="#060304" d="M 254.5,292.5 C 257.833,292.5 261.167,292.5 264.5,292.5C 264.5,299.167 264.5,305.833 264.5,312.5C 264.5,313.167 264.167,313.5 263.5,313.5C 260.5,313.5 257.5,313.5 254.5,313.5C 254.5,306.5 254.5,299.5 254.5,292.5 Z"/></g>
<g><path style="opacity:1" fill="#ac3334" d="M 107.5,304.5 C 107.5,305.167 107.5,305.833 107.5,306.5C 105.804,306.315 104.471,305.481 103.5,304C 101.833,303.333 100.167,303.333 98.5,304C 96.3718,306.273 94.7051,308.773 93.5,311.5C 92.8333,311.833 92.1667,312.167 91.5,312.5C 91.5,311.833 91.5,311.167 91.5,310.5C 92.9744,309.564 93.9744,308.23 94.5,306.5C 95.7515,304.999 96.7515,303.332 97.5,301.5C 98.2646,301.077 99.0979,300.743 100,300.5C 102.459,301.978 104.959,303.312 107.5,304.5 Z"/></g>
<g><path style="opacity:0.981" fill="#f70403" d="M 107.5,306.5 C 112.071,310.993 117.405,314.493 123.5,317C 127.943,318.721 132.276,320.721 136.5,323C 138.473,323.495 140.473,323.662 142.5,323.5C 143.29,324.794 144.29,325.961 145.5,327C 155.331,329.694 165.331,331.194 175.5,331.5C 195.805,334.35 216.138,332.85 236.5,327C 247.345,322.497 258.178,317.997 269,313.5C 270.981,314.65 272.814,315.984 274.5,317.5C 277.906,321.3 280.573,325.633 282.5,330.5C 283.901,331.521 285.235,332.521 286.5,333.5C 260.889,351.261 232.555,361.928 201.5,365.5C 188.833,365.5 176.167,365.5 163.5,365.5C 139.331,362.502 116.331,355.335 94.5,344C 88.4217,340.639 82.755,336.805 77.5,332.5C 80.7769,328.961 84.2769,325.628 88,322.5C 89.934,318.852 91.7673,315.186 93.5,311.5C 94.7051,308.773 96.3718,306.273 98.5,304C 100.167,303.333 101.833,303.333 103.5,304C 104.471,305.481 105.804,306.315 107.5,306.5 Z M 237.5,323.5 C 236.329,324.345 234.995,325.011 233.5,325.5C 233.5,325.167 233.5,324.833 233.5,324.5C 234.568,323.566 235.901,323.232 237.5,323.5 Z"/></g>
<g><path style="opacity:1" fill="#fbf9f9" d="M 222.5,327.5 C 222.5,327.833 222.5,328.167 222.5,328.5C 219.193,329.051 215.86,329.384 212.5,329.5C 212.5,324.167 212.5,318.833 212.5,313.5C 215.833,313.5 219.167,313.5 222.5,313.5C 222.5,318.167 222.5,322.833 222.5,327.5 Z"/></g>
<g><path style="opacity:1" fill="#54789b" d="M 92.5,306.5 C 93.1667,306.5 93.8333,306.5 94.5,306.5C 93.9744,308.23 92.9744,309.564 91.5,310.5C 87.4254,314.976 84.0921,319.976 81.5,325.5C 79.086,326.911 77.4194,328.911 76.5,331.5C 76.5,331.833 76.5,332.167 76.5,332.5C 75.8333,332.5 75.5,332.167 75.5,331.5C 75.9926,329.194 76.3259,326.861 76.5,324.5C 77.8221,324.67 78.9887,324.337 80,323.5C 83.7444,318.269 87.2444,312.936 90.5,307.5C 91.1667,307.167 91.8333,306.833 92.5,306.5 Z"/></g>
<g><path style="opacity:1" fill="#fee9e4" d="M 254.5,313.5 C 257.5,313.5 260.5,313.5 263.5,313.5C 260.682,315.072 257.682,316.406 254.5,317.5C 254.5,316.167 254.5,314.833 254.5,313.5 Z"/></g>
<g><path style="opacity:1" fill="#915063" d="M 91.5,310.5 C 91.5,311.167 91.5,311.833 91.5,312.5C 88.4088,317.014 85.0755,321.347 81.5,325.5C 84.0921,319.976 87.4254,314.976 91.5,310.5 Z"/></g>
<g><path style="opacity:1" fill="#b82f2e" d="M 107.5,306.5 C 112.281,309.275 117.281,311.608 122.5,313.5C 124.181,315.008 126.181,316.008 128.5,316.5C 131.235,319.201 134.569,320.868 138.5,321.5C 138.833,321.5 139.167,321.5 139.5,321.5C 140.71,321.932 141.71,322.599 142.5,323.5C 140.473,323.662 138.473,323.495 136.5,323C 132.276,320.721 127.943,318.721 123.5,317C 117.405,314.493 112.071,310.993 107.5,306.5 Z"/></g>
<g><path style="opacity:1" fill="#3e0502" d="M 128.5,316.5 C 132.288,317.365 135.621,319.032 138.5,321.5C 134.569,320.868 131.235,319.201 128.5,316.5 Z"/></g>
<g><path style="opacity:1" fill="#faf7f6" d="M 149.5,325.5 C 147.299,324.434 144.965,323.767 142.5,323.5C 141.71,322.599 140.71,321.932 139.5,321.5C 139.5,318.833 139.5,316.167 139.5,313.5C 142.833,313.5 146.167,313.5 149.5,313.5C 149.5,317.5 149.5,321.5 149.5,325.5 Z"/></g>
<g><path style="opacity:1" fill="#8e0257" d="M 270.5,308.5 C 277.074,310.26 280.907,314.593 282,321.5C 284.403,323.305 286.07,325.638 287,328.5C 288.113,329.305 289.279,329.972 290.5,330.5C 290.027,331.906 289.027,332.573 287.5,332.5C 285.364,326.857 281.864,322.19 277,318.5C 276.934,313.998 274.768,311.332 270.5,310.5C 270.5,309.833 270.5,309.167 270.5,308.5 Z"/></g>
<g><path style="opacity:1" fill="#c61b45" d="M 269.5,310.5 C 269.833,310.5 270.167,310.5 270.5,310.5C 274.768,311.332 276.934,313.998 277,318.5C 281.864,322.19 285.364,326.857 287.5,332.5C 287.5,333.167 287.167,333.5 286.5,333.5C 285.235,332.521 283.901,331.521 282.5,330.5C 280.573,325.633 277.906,321.3 274.5,317.5C 273.44,312.9 270.773,311.233 266.5,312.5C 266.821,310.952 267.821,310.285 269.5,310.5 Z"/></g>
<g><path style="opacity:1" fill="#c51620" d="M 93.5,311.5 C 91.7673,315.186 89.934,318.852 88,322.5C 84.2769,325.628 80.7769,328.961 77.5,332.5C 77.1667,332.5 76.8333,332.5 76.5,332.5C 76.5,332.167 76.5,331.833 76.5,331.5C 78.914,330.089 80.5806,328.089 81.5,325.5C 85.0755,321.347 88.4088,317.014 91.5,312.5C 92.1667,312.167 92.8333,311.833 93.5,311.5 Z"/></g>
<g><path style="opacity:1" fill="#fcf6f5" d="M 201.5,330.5 C 198.375,331.479 195.042,331.813 191.5,331.5C 191.5,331.167 191.5,330.833 191.5,330.5C 191.5,328.167 191.5,325.833 191.5,323.5C 194.833,323.5 198.167,323.5 201.5,323.5C 201.5,325.833 201.5,328.167 201.5,330.5 Z"/></g>
<g><path style="opacity:1" fill="#500105" d="M 150.5,325.5 C 153.428,325.565 156.095,326.232 158.5,327.5C 155.505,327.706 152.838,327.04 150.5,325.5 Z"/></g>
<g><path style="opacity:1" fill="#fbf3f4" d="M 170.5,330.5 C 166.975,329.79 163.642,328.79 160.5,327.5C 160.5,326.167 160.5,324.833 160.5,323.5C 163.833,323.5 167.167,323.5 170.5,323.5C 170.5,325.833 170.5,328.167 170.5,330.5 Z"/></g>
<g><path style="opacity:1" fill="#a51c1d" d="M 142.5,323.5 C 144.965,323.767 147.299,324.434 149.5,325.5C 149.833,325.5 150.167,325.5 150.5,325.5C 152.838,327.04 155.505,327.706 158.5,327.5C 159.167,327.5 159.833,327.5 160.5,327.5C 163.642,328.79 166.975,329.79 170.5,330.5C 177.5,330.5 184.5,330.5 191.5,330.5C 191.5,330.833 191.5,331.167 191.5,331.5C 186.167,331.5 180.833,331.5 175.5,331.5C 165.331,331.194 155.331,329.694 145.5,327C 144.29,325.961 143.29,324.794 142.5,323.5 Z"/></g>
<g><path style="opacity:1" fill="#500102" d="M 233.5,324.5 C 233.5,324.833 233.5,325.167 233.5,325.5C 229.893,326.652 226.227,327.652 222.5,328.5C 222.5,328.167 222.5,327.833 222.5,327.5C 226.107,326.348 229.773,325.348 233.5,324.5 Z"/></g>
<g><path style="opacity:1" fill="#955772" d="M 81.5,325.5 C 80.5806,328.089 78.914,330.089 76.5,331.5C 77.4194,328.911 79.086,326.911 81.5,325.5 Z"/></g>
<g><path style="opacity:1" fill="#bc2725" d="M 274.5,317.5 C 272.814,315.984 270.981,314.65 269,313.5C 258.178,317.997 247.345,322.497 236.5,327C 216.138,332.85 195.805,334.35 175.5,331.5C 180.833,331.5 186.167,331.5 191.5,331.5C 195.042,331.813 198.375,331.479 201.5,330.5C 205.371,330.815 209.038,330.482 212.5,329.5C 215.86,329.384 219.193,329.051 222.5,328.5C 226.227,327.652 229.893,326.652 233.5,325.5C 234.995,325.011 236.329,324.345 237.5,323.5C 243.427,322.247 249.093,320.247 254.5,317.5C 257.682,316.406 260.682,315.072 263.5,313.5C 264.167,313.5 264.5,313.167 264.5,312.5C 265.167,312.5 265.833,312.5 266.5,312.5C 270.773,311.233 273.44,312.9 274.5,317.5 Z"/></g>
</svg>
