<?xml version="1.0" encoding="UTF-8"?>
<!DOCTYPE svg PUBLIC "-//W3C//DTD SVG 1.1//EN" "http://www.w3.org/Graphics/SVG/1.1/DTD/svg11.dtd">
<svg xmlns="http://www.w3.org/2000/svg" version="1.1" width="380px" height="380px" style="shape-rendering:geometricPrecision; text-rendering:geometricPrecision; image-rendering:optimizeQuality; fill-rule:evenodd; clip-rule:evenodd" xmlns:xlink="http://www.w3.org/1999/xlink">
<g><path style="opacity:1" fill="#fafbfa" d="M -0.5,-0.5 C 51.1667,-0.5 102.833,-0.5 154.5,-0.5C 154.263,0.791047 154.596,1.79105 155.5,2.5C 144.68,5.02483 133.68,7.52483 122.5,10C 122.833,10.3333 123.167,10.6667 123.5,11C 96.3852,20.2685 72.3852,34.7685 51.5,54.5C 50.3112,55.4287 48.9778,55.762 47.5,55.5C 47.5,56.8333 47.5,58.1667 47.5,59.5C 46.1667,59.5 44.8333,59.5 43.5,59.5C 43.762,60.9778 43.4287,62.3112 42.5,63.5C 35.7349,69.4264 29.9016,76.0931 25,83.5C 24.6667,83.1667 24.3333,82.8333 24,82.5C 23.6301,86.3749 21.7967,89.3749 18.5,91.5C 11.3833,104.025 5.04995,116.025 -0.5,127.5C -0.5,84.8333 -0.5,42.1667 -0.5,-0.5 Z"/></g>
<g><path style="opacity:1" fill="#4d8d33" d="M 154.5,-0.5 C 161.5,-0.5 168.5,-0.5 175.5,-0.5C 169.014,0.814068 162.347,1.81407 155.5,2.5C 154.596,1.79105 154.263,0.791047 154.5,-0.5 Z"/></g>
<g><path style="opacity:1" fill="#9bba30" d="M 191.5,-0.5 C 192.167,-0.5 192.833,-0.5 193.5,-0.5C 193.5,13.5 193.5,27.5 193.5,41.5C 192.833,41.5 192.167,41.5 191.5,41.5C 191.5,27.5 191.5,13.5 191.5,-0.5 Z"/></g>
<g><path style="opacity:1" fill="#149b55" d="M 193.5,-0.5 C 209.167,-0.5 224.833,-0.5 240.5,-0.5C 292.937,17.6016 332.604,50.9349 359.5,99.5C 361.516,103.588 363.516,107.588 365.5,111.5C 366.833,115.5 368.167,119.5 369.5,123.5C 369.157,125.483 369.824,126.817 371.5,127.5C 371.5,127.833 371.5,128.167 371.5,128.5C 371.5,130.833 371.5,133.167 371.5,135.5C 368.635,136.62 365.968,137.953 363.5,139.5C 358.111,140.62 352.778,141.954 347.5,143.5C 345.517,143.157 344.183,143.824 343.5,145.5C 340.31,146.181 337.31,147.181 334.5,148.5C 331.933,148.855 329.433,149.521 327,150.5C 320.777,136.059 313.444,122.059 305,108.5C 277.622,69.897 240.456,47.897 193.5,42.5C 193.5,42.1667 193.5,41.8333 193.5,41.5C 193.5,27.5 193.5,13.5 193.5,-0.5 Z"/></g>
<g><path style="opacity:1" fill="#fafbfb" d="M 240.5,-0.5 C 286.833,-0.5 333.167,-0.5 379.5,-0.5C 379.5,39.1667 379.5,78.8333 379.5,118.5C 376.796,111.238 373.963,103.904 371,96.5C 369.989,95.6634 368.822,95.33 367.5,95.5C 364.833,96.8333 362.167,98.1667 359.5,99.5C 332.604,50.9349 292.937,17.6016 240.5,-0.5 Z"/></g>
<g><path style="opacity:1" fill="#fad50e" d="M 175.5,-0.5 C 180.833,-0.5 186.167,-0.5 191.5,-0.5C 191.5,13.5 191.5,27.5 191.5,41.5C 191.5,44.1667 191.5,46.8333 191.5,49.5C 185.729,48.8872 180.396,49.5539 175.5,51.5C 172.813,51.3359 170.146,51.5026 167.5,52C 166.944,52.3826 166.611,52.8826 166.5,53.5C 152.36,55.1048 139.027,59.1048 126.5,65.5C 124.219,65.0773 122.552,65.744 121.5,67.5C 104.553,76.095 89.5529,87.4284 76.5,101.5C 73.2489,106.755 69.2489,111.422 64.5,115.5C 59.2845,125.294 53.6178,134.627 47.5,143.5C 46.1667,143.5 44.8333,143.5 43.5,143.5C 42.8166,141.824 41.4832,141.157 39.5,141.5C 36.1638,140.069 31.4971,138.736 25.5,137.5C 24.8166,135.824 23.4832,135.157 21.5,135.5C 20.8333,135.5 20.1667,135.5 19.5,135.5C 18.8166,133.824 17.4832,133.157 15.5,133.5C 14.1667,133.5 12.8333,133.5 11.5,133.5C 10.8333,130.833 10.1667,130.833 9.5,133.5C 7.69206,134.918 7.02539,136.918 7.5,139.5C 5.82351,140.183 5.15684,141.517 5.5,143.5C 5.5,144.833 5.5,146.167 5.5,147.5C 3.00517,153.937 1.00517,160.604 -0.5,167.5C -0.5,154.167 -0.5,140.833 -0.5,127.5C 5.04995,116.025 11.3833,104.025 18.5,91.5C 21.7967,89.3749 23.6301,86.3749 24,82.5C 24.3333,82.8333 24.6667,83.1667 25,83.5C 29.9016,76.0931 35.7349,69.4264 42.5,63.5C 43.4287,62.3112 43.762,60.9778 43.5,59.5C 44.8333,59.5 46.1667,59.5 47.5,59.5C 47.5,58.1667 47.5,56.8333 47.5,55.5C 48.9778,55.762 50.3112,55.4287 51.5,54.5C 72.3852,34.7685 96.3852,20.2685 123.5,11C 123.167,10.6667 122.833,10.3333 122.5,10C 133.68,7.52483 144.68,5.02483 155.5,2.5C 162.347,1.81407 169.014,0.814068 175.5,-0.5 Z"/></g>
<g><path style="opacity:1" fill="#fafbfb" d="M 193.5,42.5 C 240.456,47.897 277.622,69.897 305,108.5C 313.444,122.059 320.777,136.059 327,150.5C 329.433,149.521 331.933,148.855 334.5,148.5C 345.227,213.343 325.227,266.343 274.5,307.5C 273.369,309.074 273.202,310.741 274,312.5C 275.176,314.196 276.343,315.862 277.5,317.5C 275.5,318.167 273.5,318.833 271.5,319.5C 271.5,312.833 271.5,306.167 271.5,299.5C 268.167,299.5 264.833,299.5 261.5,299.5C 261.5,295.833 261.5,292.167 261.5,288.5C 257.833,288.5 254.167,288.5 250.5,288.5C 250.5,285.167 250.5,281.833 250.5,278.5C 247.167,278.5 243.833,278.5 240.5,278.5C 240.5,274.833 240.5,271.167 240.5,267.5C 236.833,267.5 233.167,267.5 229.5,267.5C 229.5,264.167 229.5,260.833 229.5,257.5C 233.167,257.5 236.833,257.5 240.5,257.5C 240.5,253.833 240.5,250.167 240.5,246.5C 243.833,246.5 247.167,246.5 250.5,246.5C 250.5,243.167 250.5,239.833 250.5,236.5C 257.5,236.5 264.5,236.5 271.5,236.5C 271.5,232.833 271.5,229.167 271.5,225.5C 275.167,225.5 278.833,225.5 282.5,225.5C 282.5,222.167 282.5,218.833 282.5,215.5C 285.833,215.5 289.167,215.5 292.5,215.5C 292.5,204.833 292.5,194.167 292.5,183.5C 289.167,183.5 285.833,183.5 282.5,183.5C 282.5,169.5 282.5,155.5 282.5,141.5C 278.833,141.5 275.167,141.5 271.5,141.5C 271.5,134.5 271.5,127.5 271.5,120.5C 268.167,120.5 264.833,120.5 261.5,120.5C 261.5,117.167 261.5,113.833 261.5,110.5C 268.5,110.5 275.5,110.5 282.5,110.5C 282.5,106.833 282.5,103.167 282.5,99.5C 275.5,99.5 268.5,99.5 261.5,99.5C 261.5,92.5 261.5,85.5 261.5,78.5C 257.833,78.5 254.167,78.5 250.5,78.5C 250.5,85.5 250.5,92.5 250.5,99.5C 243.5,99.5 236.5,99.5 229.5,99.5C 229.5,96.1667 229.5,92.8333 229.5,89.5C 201.833,89.5 174.167,89.5 146.5,89.5C 146.5,92.8333 146.5,96.1667 146.5,99.5C 139.5,99.5 132.5,99.5 125.5,99.5C 125.5,103.167 125.5,106.833 125.5,110.5C 121.833,110.5 118.167,110.5 114.5,110.5C 114.5,113.833 114.5,117.167 114.5,120.5C 111.167,120.5 107.833,120.5 104.5,120.5C 104.5,127.5 104.5,134.5 104.5,141.5C 100.833,141.5 97.1667,141.5 93.5,141.5C 93.5,155.5 93.5,169.5 93.5,183.5C 90.1667,183.5 86.8333,183.5 83.5,183.5C 83.5,194.167 83.5,204.833 83.5,215.5C 86.8333,215.5 90.1667,215.5 93.5,215.5C 93.5,218.833 93.5,222.167 93.5,225.5C 97.1667,225.5 100.833,225.5 104.5,225.5C 104.5,229.167 104.5,232.833 104.5,236.5C 111.5,236.5 118.5,236.5 125.5,236.5C 125.5,239.833 125.5,243.167 125.5,246.5C 128.833,246.5 132.167,246.5 135.5,246.5C 135.5,250.167 135.5,253.833 135.5,257.5C 139.167,257.5 142.833,257.5 146.5,257.5C 146.5,260.833 146.5,264.167 146.5,267.5C 142.833,267.5 139.167,267.5 135.5,267.5C 135.5,271.167 135.5,274.833 135.5,278.5C 132.167,278.5 128.833,278.5 125.5,278.5C 125.5,281.833 125.5,285.167 125.5,288.5C 121.833,288.5 118.167,288.5 114.5,288.5C 114.5,292.167 114.5,295.833 114.5,299.5C 111.167,299.5 107.833,299.5 104.5,299.5C 104.5,302.833 104.5,306.167 104.5,309.5C 103.512,310.795 102.512,312.128 101.5,313.5C 94.2003,308.034 87.7003,301.701 82,294.5C 50.2079,250.422 41.7079,202.089 56.5,149.5C 56.3918,148.558 56.0585,147.725 55.5,147C 52.5989,146.125 49.9323,144.958 47.5,143.5C 53.6178,134.627 59.2845,125.294 64.5,115.5C 69.2489,111.422 73.2489,106.755 76.5,101.5C 89.5529,87.4284 104.553,76.095 121.5,67.5C 123.698,67.8799 125.365,67.2132 126.5,65.5C 139.027,59.1048 152.36,55.1048 166.5,53.5C 170.012,54.0545 173.012,53.3878 175.5,51.5C 181.5,51.5 187.5,51.5 193.5,51.5C 193.5,48.5 193.5,45.5 193.5,42.5 Z"/></g>
<g><path style="opacity:1" fill="#f6df56" d="M 191.5,41.5 C 192.167,41.5 192.833,41.5 193.5,41.5C 193.5,41.8333 193.5,42.1667 193.5,42.5C 193.5,45.5 193.5,48.5 193.5,51.5C 187.5,51.5 181.5,51.5 175.5,51.5C 180.396,49.5539 185.729,48.8872 191.5,49.5C 191.5,46.8333 191.5,44.1667 191.5,41.5 Z"/></g>
<g><path style="opacity:1" fill="#f8f1b0" d="M 175.5,51.5 C 173.012,53.3878 170.012,54.0545 166.5,53.5C 166.611,52.8826 166.944,52.3826 167.5,52C 170.146,51.5026 172.813,51.3359 175.5,51.5 Z"/></g>
<g><path style="opacity:1" fill="#f7ee9c" d="M 126.5,65.5 C 125.365,67.2132 123.698,67.8799 121.5,67.5C 122.552,65.744 124.219,65.0773 126.5,65.5 Z"/></g>
<g><path style="opacity:1" fill="#040404" d="M 282.5,183.5 C 278.833,183.5 275.167,183.5 271.5,183.5C 271.5,190.5 271.5,197.5 271.5,204.5C 268.167,204.5 264.833,204.5 261.5,204.5C 261.5,211.5 261.5,218.5 261.5,225.5C 264.833,225.5 268.167,225.5 271.5,225.5C 271.5,229.167 271.5,232.833 271.5,236.5C 264.5,236.5 257.5,236.5 250.5,236.5C 250.5,229.5 250.5,222.5 250.5,215.5C 247.167,215.5 243.833,215.5 240.5,215.5C 240.5,211.833 240.5,208.167 240.5,204.5C 236.833,204.5 233.167,204.5 229.5,204.5C 229.5,201.167 229.5,197.833 229.5,194.5C 226.167,194.5 222.833,194.5 219.5,194.5C 219.5,190.833 219.5,187.167 219.5,183.5C 212.5,183.5 205.5,183.5 198.5,183.5C 198.5,187.167 198.5,190.833 198.5,194.5C 191.5,194.5 184.5,194.5 177.5,194.5C 177.5,197.833 177.5,201.167 177.5,204.5C 170.5,204.5 163.5,204.5 156.5,204.5C 156.5,215.167 156.5,225.833 156.5,236.5C 153.167,236.5 149.833,236.5 146.5,236.5C 146.5,229.5 146.5,222.5 146.5,215.5C 139.5,215.5 132.5,215.5 125.5,215.5C 125.5,222.5 125.5,229.5 125.5,236.5C 118.5,236.5 111.5,236.5 104.5,236.5C 104.5,232.833 104.5,229.167 104.5,225.5C 107.833,225.5 111.167,225.5 114.5,225.5C 114.5,218.5 114.5,211.5 114.5,204.5C 111.167,204.5 107.833,204.5 104.5,204.5C 104.5,197.5 104.5,190.5 104.5,183.5C 100.833,183.5 97.1667,183.5 93.5,183.5C 93.5,169.5 93.5,155.5 93.5,141.5C 97.1667,141.5 100.833,141.5 104.5,141.5C 104.5,134.5 104.5,127.5 104.5,120.5C 107.833,120.5 111.167,120.5 114.5,120.5C 114.5,117.167 114.5,113.833 114.5,110.5C 118.167,110.5 121.833,110.5 125.5,110.5C 125.5,106.833 125.5,103.167 125.5,99.5C 132.5,99.5 139.5,99.5 146.5,99.5C 146.5,96.1667 146.5,92.8333 146.5,89.5C 174.167,89.5 201.833,89.5 229.5,89.5C 229.5,92.8333 229.5,96.1667 229.5,99.5C 236.5,99.5 243.5,99.5 250.5,99.5C 250.5,92.5 250.5,85.5 250.5,78.5C 254.167,78.5 257.833,78.5 261.5,78.5C 261.5,85.5 261.5,92.5 261.5,99.5C 268.5,99.5 275.5,99.5 282.5,99.5C 282.5,103.167 282.5,106.833 282.5,110.5C 275.5,110.5 268.5,110.5 261.5,110.5C 261.5,113.833 261.5,117.167 261.5,120.5C 264.833,120.5 268.167,120.5 271.5,120.5C 271.5,127.5 271.5,134.5 271.5,141.5C 275.167,141.5 278.833,141.5 282.5,141.5C 282.5,155.5 282.5,169.5 282.5,183.5 Z"/></g>
<g><path style="opacity:1" fill="#722061" d="M 367.5,95.5 C 367.096,96.7564 366.429,97.9231 365.5,99C 366.388,100.22 367.055,101.553 367.5,103C 366.105,105.679 365.439,108.512 365.5,111.5C 363.516,107.588 361.516,103.588 359.5,99.5C 362.167,98.1667 364.833,96.8333 367.5,95.5 Z"/></g>
<g><path style="opacity:1" fill="#820669" d="M 367.5,95.5 C 368.822,95.33 369.989,95.6634 371,96.5C 373.963,103.904 376.796,111.238 379.5,118.5C 379.5,160.167 379.5,201.833 379.5,243.5C 369.633,274.861 353.299,302.361 330.5,326C 331.056,326.383 331.389,326.883 331.5,327.5C 329.169,327.498 327.169,328.331 325.5,330C 321.906,333.75 318.573,337.583 315.5,341.5C 312.422,341.587 310.089,342.92 308.5,345.5C 305.664,346.776 302.664,347.442 299.5,347.5C 299.843,345.517 299.176,344.183 297.5,343.5C 295.956,341.113 293.956,339.113 291.5,337.5C 290.356,333.989 288.689,330.656 286.5,327.5C 285.735,326.388 284.735,325.721 283.5,325.5C 283.545,322.923 282.545,320.923 280.5,319.5C 280.167,319.5 279.833,319.5 279.5,319.5C 279.5,318.167 278.833,317.5 277.5,317.5C 276.343,315.862 275.176,314.196 274,312.5C 273.202,310.741 273.369,309.074 274.5,307.5C 325.227,266.343 345.227,213.343 334.5,148.5C 337.31,147.181 340.31,146.181 343.5,145.5C 345.483,145.843 346.817,145.176 347.5,143.5C 352.778,141.954 358.111,140.62 363.5,139.5C 367.854,140.251 371.187,138.917 373.5,135.5C 373.662,133.473 373.495,131.473 373,129.5C 372.617,128.944 372.117,128.611 371.5,128.5C 371.5,128.167 371.5,127.833 371.5,127.5C 371.843,125.517 371.176,124.183 369.5,123.5C 368.167,119.5 366.833,115.5 365.5,111.5C 365.439,108.512 366.105,105.679 367.5,103C 367.055,101.553 366.388,100.22 365.5,99C 366.429,97.9231 367.096,96.7564 367.5,95.5 Z"/></g>
<g><path style="opacity:1" fill="#437866" d="M 369.5,123.5 C 371.176,124.183 371.843,125.517 371.5,127.5C 369.824,126.817 369.157,125.483 369.5,123.5 Z"/></g>
<g><path style="opacity:1" fill="#49726c" d="M 371.5,128.5 C 372.117,128.611 372.617,128.944 373,129.5C 373.495,131.473 373.662,133.473 373.5,135.5C 372.833,135.5 372.167,135.5 371.5,135.5C 371.5,133.167 371.5,130.833 371.5,128.5 Z"/></g>
<g><path style="opacity:1" fill="#5aa066" d="M 11.5,133.5 C 10.8333,133.5 10.1667,133.5 9.5,133.5C 10.1667,130.833 10.8333,130.833 11.5,133.5 Z"/></g>
<g><path style="opacity:1" fill="#0f8bc0" d="M 9.5,133.5 C 10.1667,133.5 10.8333,133.5 11.5,133.5C 12.8333,133.5 14.1667,133.5 15.5,133.5C 15.3893,134.117 15.056,134.617 14.5,135C 16.1341,135.494 17.8008,135.66 19.5,135.5C 20.1667,135.5 20.8333,135.5 21.5,135.5C 22.1834,137.176 23.5168,137.843 25.5,137.5C 31.4971,138.736 36.1638,140.069 39.5,141.5C 40.1834,143.176 41.5168,143.843 43.5,143.5C 44.8333,143.5 46.1667,143.5 47.5,143.5C 49.9323,144.958 52.5989,146.125 55.5,147C 56.0585,147.725 56.3918,148.558 56.5,149.5C 41.7079,202.089 50.2079,250.422 82,294.5C 87.7003,301.701 94.2003,308.034 101.5,313.5C 101.5,314.167 101.5,314.833 101.5,315.5C 100.265,315.721 99.2652,316.388 98.5,317.5C 96.311,320.656 94.6443,323.989 93.5,327.5C 89.9752,329.025 87.9752,331.691 87.5,335.5C 84.6874,336.446 83.354,338.446 83.5,341.5C 81.5,342.167 80.1667,343.5 79.5,345.5C 78.4138,345.62 77.7472,346.287 77.5,347.5C 77.7472,348.713 78.4138,349.38 79.5,349.5C 79.7214,350.735 80.3881,351.735 81.5,352.5C 83.5531,353.527 85.5531,354.527 87.5,355.5C 88.1834,357.176 89.5168,357.843 91.5,357.5C 92.1834,359.176 93.5168,359.843 95.5,359.5C 97.081,361.303 99.081,362.636 101.5,363.5C 101.5,364.833 102.167,365.5 103.5,365.5C 104.167,365.5 104.833,365.5 105.5,365.5C 105.5,366.833 106.167,367.5 107.5,367.5C 108.492,367.328 109.158,367.662 109.5,368.5C 107.669,372.154 105.336,375.487 102.5,378.5C 45.5345,343.546 11.2012,293.213 -0.5,227.5C -0.5,209.833 -0.5,192.167 -0.5,174.5C 3.0014,165.928 5.0014,156.928 5.5,147.5C 5.5,146.167 5.5,144.833 5.5,143.5C 7.17649,142.817 7.84316,141.483 7.5,139.5C 7.02539,136.918 7.69206,134.918 9.5,133.5 Z"/></g>
<g><path style="opacity:1" fill="#63a973" d="M 15.5,133.5 C 17.4832,133.157 18.8166,133.824 19.5,135.5C 17.8008,135.66 16.1341,135.494 14.5,135C 15.056,134.617 15.3893,134.117 15.5,133.5 Z"/></g>
<g><path style="opacity:1" fill="#6eab73" d="M 21.5,135.5 C 23.4832,135.157 24.8166,135.824 25.5,137.5C 23.5168,137.843 22.1834,137.176 21.5,135.5 Z"/></g>
<g><path style="opacity:1" fill="#572f57" d="M 371.5,135.5 C 372.167,135.5 372.833,135.5 373.5,135.5C 371.187,138.917 367.854,140.251 363.5,139.5C 365.968,137.953 368.635,136.62 371.5,135.5 Z"/></g>
<g><path style="opacity:1" fill="#50a375" d="M 7.5,139.5 C 7.84316,141.483 7.17649,142.817 5.5,143.5C 5.15684,141.517 5.82351,140.183 7.5,139.5 Z"/></g>
<g><path style="opacity:1" fill="#57a374" d="M 39.5,141.5 C 41.4832,141.157 42.8166,141.824 43.5,143.5C 41.5168,143.843 40.1834,143.176 39.5,141.5 Z"/></g>
<g><path style="opacity:1" fill="#4a605f" d="M 347.5,143.5 C 346.817,145.176 345.483,145.843 343.5,145.5C 344.183,143.824 345.517,143.157 347.5,143.5 Z"/></g>
<g><path style="opacity:1" fill="#479ca7" d="M 5.5,147.5 C 5.0014,156.928 3.0014,165.928 -0.5,174.5C -0.5,172.167 -0.5,169.833 -0.5,167.5C 1.00517,160.604 3.00517,153.937 5.5,147.5 Z"/></g>
<g><path style="opacity:1" fill="#030403" d="M 93.5,183.5 C 93.5,194.167 93.5,204.833 93.5,215.5C 90.1667,215.5 86.8333,215.5 83.5,215.5C 83.5,204.833 83.5,194.167 83.5,183.5C 86.8333,183.5 90.1667,183.5 93.5,183.5 Z"/></g>
<g><path style="opacity:1" fill="#f8f9f9" d="M 93.5,183.5 C 97.1667,183.5 100.833,183.5 104.5,183.5C 104.5,190.5 104.5,197.5 104.5,204.5C 107.833,204.5 111.167,204.5 114.5,204.5C 114.5,211.5 114.5,218.5 114.5,225.5C 111.167,225.5 107.833,225.5 104.5,225.5C 104.5,222.167 104.5,218.833 104.5,215.5C 100.833,215.5 97.1667,215.5 93.5,215.5C 93.5,204.833 93.5,194.167 93.5,183.5 Z"/></g>
<g><path style="opacity:1" fill="#f9fafa" d="M 229.5,204.5 C 233.167,204.5 236.833,204.5 240.5,204.5C 240.5,208.167 240.5,211.833 240.5,215.5C 243.833,215.5 247.167,215.5 250.5,215.5C 250.5,222.5 250.5,229.5 250.5,236.5C 247.167,236.5 243.833,236.5 240.5,236.5C 240.5,239.833 240.5,243.167 240.5,246.5C 233.5,246.5 226.5,246.5 219.5,246.5C 219.5,250.167 219.5,253.833 219.5,257.5C 198.5,257.5 177.5,257.5 156.5,257.5C 156.5,253.833 156.5,250.167 156.5,246.5C 149.5,246.5 142.5,246.5 135.5,246.5C 132.167,246.5 128.833,246.5 125.5,246.5C 125.5,243.167 125.5,239.833 125.5,236.5C 125.5,229.5 125.5,222.5 125.5,215.5C 132.5,215.5 139.5,215.5 146.5,215.5C 146.5,222.5 146.5,229.5 146.5,236.5C 149.833,236.5 153.167,236.5 156.5,236.5C 156.5,225.833 156.5,215.167 156.5,204.5C 163.5,204.5 170.5,204.5 177.5,204.5C 177.5,201.167 177.5,197.833 177.5,194.5C 184.5,194.5 191.5,194.5 198.5,194.5C 198.5,190.833 198.5,187.167 198.5,183.5C 205.5,183.5 212.5,183.5 219.5,183.5C 219.5,187.167 219.5,190.833 219.5,194.5C 222.833,194.5 226.167,194.5 229.5,194.5C 229.5,197.833 229.5,201.167 229.5,204.5 Z"/></g>
<g><path style="opacity:1" fill="#f9fafb" d="M 282.5,183.5 C 282.5,194.167 282.5,204.833 282.5,215.5C 278.833,215.5 275.167,215.5 271.5,215.5C 271.5,218.833 271.5,222.167 271.5,225.5C 268.167,225.5 264.833,225.5 261.5,225.5C 261.5,218.5 261.5,211.5 261.5,204.5C 264.833,204.5 268.167,204.5 271.5,204.5C 271.5,197.5 271.5,190.5 271.5,183.5C 275.167,183.5 278.833,183.5 282.5,183.5 Z"/></g>
<g><path style="opacity:1" fill="#030403" d="M 282.5,183.5 C 285.833,183.5 289.167,183.5 292.5,183.5C 292.5,194.167 292.5,204.833 292.5,215.5C 289.167,215.5 285.833,215.5 282.5,215.5C 282.5,204.833 282.5,194.167 282.5,183.5 Z"/></g>
<g><path style="opacity:1" fill="#060606" d="M 229.5,204.5 C 229.5,215.167 229.5,225.833 229.5,236.5C 226.167,236.5 222.833,236.5 219.5,236.5C 219.5,225.833 219.5,215.167 219.5,204.5C 222.833,204.5 226.167,204.5 229.5,204.5 Z"/></g>
<g><path style="opacity:1" fill="#030403" d="M 93.5,215.5 C 97.1667,215.5 100.833,215.5 104.5,215.5C 104.5,218.833 104.5,222.167 104.5,225.5C 100.833,225.5 97.1667,225.5 93.5,225.5C 93.5,222.167 93.5,218.833 93.5,215.5 Z"/></g>
<g><path style="opacity:1" fill="#030403" d="M 282.5,215.5 C 282.5,218.833 282.5,222.167 282.5,225.5C 278.833,225.5 275.167,225.5 271.5,225.5C 271.5,222.167 271.5,218.833 271.5,215.5C 275.167,215.5 278.833,215.5 282.5,215.5 Z"/></g>
<g><path style="opacity:1" fill="#090a0a" d="M 250.5,236.5 C 250.5,239.833 250.5,243.167 250.5,246.5C 247.167,246.5 243.833,246.5 240.5,246.5C 240.5,243.167 240.5,239.833 240.5,236.5C 243.833,236.5 247.167,236.5 250.5,236.5 Z"/></g>
<g><path style="opacity:1" fill="#f9fbfb" d="M -0.5,227.5 C 11.2012,293.213 45.5345,343.546 102.5,378.5C 105.336,375.487 107.669,372.154 109.5,368.5C 110.209,369.404 111.209,369.737 112.5,369.5C 116.895,372.64 121.895,374.64 127.5,375.5C 129.364,377.014 131.364,378.347 133.5,379.5C 88.8333,379.5 44.1667,379.5 -0.5,379.5C -0.5,328.833 -0.5,278.167 -0.5,227.5 Z"/></g>
<g><path style="opacity:1" fill="#0b0c0c" d="M 125.5,236.5 C 128.833,236.5 132.167,236.5 135.5,236.5C 135.5,239.833 135.5,243.167 135.5,246.5C 135.5,243.167 135.5,239.833 135.5,236.5C 132.167,236.5 128.833,236.5 125.5,236.5 Z"/></g>
<g><path style="opacity:1" fill="#050404" d="M 135.5,246.5 C 142.5,246.5 149.5,246.5 156.5,246.5C 156.5,250.167 156.5,253.833 156.5,257.5C 177.5,257.5 198.5,257.5 219.5,257.5C 219.5,253.833 219.5,250.167 219.5,246.5C 226.5,246.5 233.5,246.5 240.5,246.5C 240.5,250.167 240.5,253.833 240.5,257.5C 236.833,257.5 233.167,257.5 229.5,257.5C 229.5,260.833 229.5,264.167 229.5,267.5C 226.167,267.5 222.833,267.5 219.5,267.5C 219.5,274.5 219.5,281.5 219.5,288.5C 222.833,288.5 226.167,288.5 229.5,288.5C 229.5,292.167 229.5,295.833 229.5,299.5C 233.167,299.5 236.833,299.5 240.5,299.5C 240.5,306.5 240.5,313.5 240.5,320.5C 247.5,320.5 254.5,320.5 261.5,320.5C 261.5,321.833 261.5,323.167 261.5,324.5C 260.833,324.5 260.5,324.833 260.5,325.5C 258.447,325.402 256.78,326.069 255.5,327.5C 253.214,327.595 251.214,328.262 249.5,329.5C 247.901,329.232 246.568,329.566 245.5,330.5C 243.585,330.216 241.919,330.549 240.5,331.5C 239.662,331.842 239.328,332.508 239.5,333.5C 236.788,333.737 234.288,333.737 232,333.5C 231.583,334.756 230.75,335.423 229.5,335.5C 229.5,330.5 229.5,325.5 229.5,320.5C 226.167,320.5 222.833,320.5 219.5,320.5C 219.5,325.833 219.5,331.167 219.5,336.5C 216.713,337.477 213.713,337.81 210.5,337.5C 209.833,337.5 209.167,337.5 208.5,337.5C 208.5,335.167 208.5,332.833 208.5,330.5C 205.167,330.5 201.833,330.5 198.5,330.5C 198.5,332.833 198.5,335.167 198.5,337.5C 193.5,337.5 188.5,337.5 183.5,337.5C 181.5,337.5 179.5,337.5 177.5,337.5C 177.5,335.167 177.5,332.833 177.5,330.5C 174.167,330.5 170.833,330.5 167.5,330.5C 167.5,332.167 167.5,333.833 167.5,335.5C 163.462,334.972 159.795,333.639 156.5,331.5C 156.5,327.833 156.5,324.167 156.5,320.5C 153.167,320.5 149.833,320.5 146.5,320.5C 146.5,323.167 146.5,325.833 146.5,328.5C 145.609,327.89 144.609,327.557 143.5,327.5C 140.833,326.833 138.167,326.167 135.5,325.5C 133.196,323.343 130.529,321.676 127.5,320.5C 130.167,320.5 132.833,320.5 135.5,320.5C 135.5,313.5 135.5,306.5 135.5,299.5C 139.167,299.5 142.833,299.5 146.5,299.5C 146.5,295.833 146.5,292.167 146.5,288.5C 149.833,288.5 153.167,288.5 156.5,288.5C 156.5,281.5 156.5,274.5 156.5,267.5C 153.167,267.5 149.833,267.5 146.5,267.5C 146.5,264.167 146.5,260.833 146.5,257.5C 142.833,257.5 139.167,257.5 135.5,257.5C 135.5,253.833 135.5,250.167 135.5,246.5 Z"/></g>
<g><path style="opacity:1" fill="#fafafb" d="M 379.5,243.5 C 379.5,288.833 379.5,334.167 379.5,379.5C 341.5,379.5 303.5,379.5 265.5,379.5C 266.167,378.833 266.833,378.167 267.5,377.5C 283.369,372.233 298.036,364.899 311.5,355.5C 320.348,350.655 328.348,344.655 335.5,337.5C 339.5,335.5 339.5,333.5 335.5,331.5C 334.598,329.659 333.264,328.326 331.5,327.5C 331.389,326.883 331.056,326.383 330.5,326C 353.299,302.361 369.633,274.861 379.5,243.5 Z"/></g>
<g><path style="opacity:1" fill="#09090a" d="M 146.5,267.5 C 146.5,271.167 146.5,274.833 146.5,278.5C 142.833,278.5 139.167,278.5 135.5,278.5C 135.5,274.833 135.5,271.167 135.5,267.5C 139.167,267.5 142.833,267.5 146.5,267.5 Z"/></g>
<g><path style="opacity:1" fill="#fafafa" d="M 146.5,267.5 C 149.833,267.5 153.167,267.5 156.5,267.5C 156.5,274.5 156.5,281.5 156.5,288.5C 153.167,288.5 149.833,288.5 146.5,288.5C 146.5,292.167 146.5,295.833 146.5,299.5C 142.833,299.5 139.167,299.5 135.5,299.5C 135.5,306.5 135.5,313.5 135.5,320.5C 132.833,320.5 130.167,320.5 127.5,320.5C 123.546,318.186 119.546,315.853 115.5,313.5C 115.167,313.5 114.833,313.5 114.5,313.5C 114.5,308.833 114.5,304.167 114.5,299.5C 118.167,299.5 121.833,299.5 125.5,299.5C 125.5,295.833 125.5,292.167 125.5,288.5C 128.833,288.5 132.167,288.5 135.5,288.5C 135.5,285.167 135.5,281.833 135.5,278.5C 139.167,278.5 142.833,278.5 146.5,278.5C 146.5,274.833 146.5,271.167 146.5,267.5 Z"/></g>
<g><path style="opacity:1" fill="#fafcfb" d="M 177.5,267.5 C 184.5,267.5 191.5,267.5 198.5,267.5C 198.5,271.167 198.5,274.833 198.5,278.5C 191.5,278.5 184.5,278.5 177.5,278.5C 177.5,274.833 177.5,271.167 177.5,267.5 Z"/></g>
<g><path style="opacity:1" fill="#fafcfb" d="M 229.5,267.5 C 233.167,267.5 236.833,267.5 240.5,267.5C 240.5,271.167 240.5,274.833 240.5,278.5C 243.833,278.5 247.167,278.5 250.5,278.5C 250.5,281.833 250.5,285.167 250.5,288.5C 254.167,288.5 257.833,288.5 261.5,288.5C 261.5,292.167 261.5,295.833 261.5,299.5C 261.5,306.5 261.5,313.5 261.5,320.5C 254.5,320.5 247.5,320.5 240.5,320.5C 240.5,313.5 240.5,306.5 240.5,299.5C 236.833,299.5 233.167,299.5 229.5,299.5C 229.5,295.833 229.5,292.167 229.5,288.5C 226.167,288.5 222.833,288.5 219.5,288.5C 219.5,281.5 219.5,274.5 219.5,267.5C 222.833,267.5 226.167,267.5 229.5,267.5 Z"/></g>
<g><path style="opacity:1" fill="#030403" d="M 229.5,267.5 C 233.167,267.5 236.833,267.5 240.5,267.5C 240.5,271.167 240.5,274.833 240.5,278.5C 236.833,278.5 233.167,278.5 229.5,278.5C 229.5,274.833 229.5,271.167 229.5,267.5 Z"/></g>
<g><path style="opacity:1" fill="#030403" d="M 135.5,278.5 C 135.5,281.833 135.5,285.167 135.5,288.5C 132.167,288.5 128.833,288.5 125.5,288.5C 125.5,285.167 125.5,281.833 125.5,278.5C 128.833,278.5 132.167,278.5 135.5,278.5 Z"/></g>
<g><path style="opacity:1" fill="#030403" d="M 240.5,278.5 C 243.833,278.5 247.167,278.5 250.5,278.5C 250.5,281.833 250.5,285.167 250.5,288.5C 247.167,288.5 243.833,288.5 240.5,288.5C 240.5,285.167 240.5,281.833 240.5,278.5 Z"/></g>
<g><path style="opacity:1" fill="#030403" d="M 125.5,288.5 C 125.5,292.167 125.5,295.833 125.5,299.5C 121.833,299.5 118.167,299.5 114.5,299.5C 114.5,295.833 114.5,292.167 114.5,288.5C 118.167,288.5 121.833,288.5 125.5,288.5 Z"/></g>
<g><path style="opacity:1" fill="#030403" d="M 250.5,288.5 C 254.167,288.5 257.833,288.5 261.5,288.5C 261.5,292.167 261.5,295.833 261.5,299.5C 257.833,299.5 254.167,299.5 250.5,299.5C 250.5,295.833 250.5,292.167 250.5,288.5 Z"/></g>
<g><path style="opacity:1" fill="#141212" d="M 114.5,299.5 C 114.5,304.167 114.5,308.833 114.5,313.5C 114.167,313.5 113.833,313.5 113.5,313.5C 112.404,311.233 110.737,309.4 108.5,308C 106.807,307.516 105.473,308.016 104.5,309.5C 104.5,306.167 104.5,302.833 104.5,299.5C 107.833,299.5 111.167,299.5 114.5,299.5 Z"/></g>
<g><path style="opacity:1" fill="#070505" d="M 261.5,299.5 C 264.833,299.5 268.167,299.5 271.5,299.5C 271.5,306.167 271.5,312.833 271.5,319.5C 271.5,320.833 270.833,321.5 269.5,321.5C 267.052,320.527 264.385,320.194 261.5,320.5C 261.5,313.5 261.5,306.5 261.5,299.5 Z"/></g>
<g><path style="opacity:1" fill="#d8211b" d="M 113.5,313.5 C 109.258,313.151 105.258,313.817 101.5,315.5C 101.5,314.833 101.5,314.167 101.5,313.5C 102.512,312.128 103.512,310.795 104.5,309.5C 105.473,308.016 106.807,307.516 108.5,308C 110.737,309.4 112.404,311.233 113.5,313.5 Z"/></g>
<g><path style="opacity:1" fill="#f80504" d="M 113.5,313.5 C 113.833,313.5 114.167,313.5 114.5,313.5C 114.833,313.5 115.167,313.5 115.5,313.5C 119.194,317.63 123.028,321.63 127,325.5C 129.621,325.296 132.455,325.296 135.5,325.5C 138.167,326.167 140.833,326.833 143.5,327.5C 145.074,330.708 147.741,332.042 151.5,331.5C 153.475,331.822 155.142,331.822 156.5,331.5C 159.795,333.639 163.462,334.972 167.5,335.5C 170.903,335.851 174.237,336.518 177.5,337.5C 179.5,337.5 181.5,337.5 183.5,337.5C 192.105,339.471 201.105,340.138 210.5,339.5C 214.878,339.371 219.045,339.371 223,339.5C 224.698,338.259 226.198,336.926 227.5,335.5C 228.167,335.5 228.833,335.5 229.5,335.5C 230.75,335.423 231.583,334.756 232,333.5C 234.288,333.737 236.788,333.737 239.5,333.5C 242.247,333.813 244.914,333.48 247.5,332.5C 248.612,331.735 249.279,330.735 249.5,329.5C 251.541,329.146 253.374,329.146 255,329.5C 255.464,328.906 255.631,328.239 255.5,327.5C 256.78,326.069 258.447,325.402 260.5,325.5C 262.924,325.808 265.257,325.474 267.5,324.5C 271.382,322.531 275.382,320.864 279.5,319.5C 279.833,319.5 280.167,319.5 280.5,319.5C 279.253,322.482 280.253,324.482 283.5,325.5C 283.716,331.063 286.383,335.063 291.5,337.5C 293.956,339.113 295.956,341.113 297.5,343.5C 297.157,345.483 297.824,346.817 299.5,347.5C 299.712,349.384 300.712,350.717 302.5,351.5C 304.833,350 307.167,348.5 309.5,347C 308.944,346.617 308.611,346.117 308.5,345.5C 310.089,342.92 312.422,341.587 315.5,341.5C 317.017,341.489 318.184,340.823 319,339.5C 319.317,341.301 319.984,341.634 321,340.5C 321.497,342.81 321.663,345.143 321.5,347.5C 315.804,347.194 312.471,349.861 311.5,355.5C 298.036,364.899 283.369,372.233 267.5,377.5C 265.517,377.157 264.183,377.824 263.5,379.5C 220.833,379.5 178.167,379.5 135.5,379.5C 133.926,376.292 131.259,374.958 127.5,375.5C 123.392,371.624 118.392,369.624 112.5,369.5C 111.209,369.737 110.209,369.404 109.5,368.5C 109.158,367.662 108.492,367.328 107.5,367.5C 106.167,367.5 105.5,366.833 105.5,365.5C 104.833,365.5 104.167,365.5 103.5,365.5C 102.167,365.5 101.5,364.833 101.5,363.5C 99.081,362.636 97.081,361.303 95.5,359.5C 94.8166,357.824 93.4832,357.157 91.5,357.5C 90.8166,355.824 89.4832,355.157 87.5,355.5C 85.5531,354.527 83.5531,353.527 81.5,352.5C 80.3881,351.735 79.7214,350.735 79.5,349.5C 79.5,348.167 79.5,346.833 79.5,345.5C 80.1667,343.5 81.5,342.167 83.5,341.5C 86.3126,340.554 87.646,338.554 87.5,335.5C 87.9752,331.691 89.9752,329.025 93.5,327.5C 94.8333,327.5 96.1667,327.5 97.5,327.5C 98.8333,323.5 100.167,319.5 101.5,315.5C 105.258,313.817 109.258,313.151 113.5,313.5 Z"/></g>
<g><path style="opacity:1" fill="#fafafa" d="M 156.5,331.5 C 155.142,331.822 153.475,331.822 151.5,331.5C 150.035,330.263 148.368,329.263 146.5,328.5C 146.5,325.833 146.5,323.167 146.5,320.5C 149.833,320.5 153.167,320.5 156.5,320.5C 156.5,324.167 156.5,327.833 156.5,331.5 Z"/></g>
<g><path style="opacity:1" fill="#fafbfb" d="M 229.5,335.5 C 228.833,335.5 228.167,335.5 227.5,335.5C 224.873,336.092 222.206,336.425 219.5,336.5C 219.5,331.167 219.5,325.833 219.5,320.5C 222.833,320.5 226.167,320.5 229.5,320.5C 229.5,325.5 229.5,330.5 229.5,335.5 Z"/></g>
<g><path style="opacity:1" fill="#fbf7f7" d="M 261.5,320.5 C 264.385,320.194 267.052,320.527 269.5,321.5C 266.828,322.501 264.162,323.501 261.5,324.5C 261.5,323.167 261.5,321.833 261.5,320.5 Z"/></g>
<g><path style="opacity:1" fill="#e01a16" d="M 115.5,313.5 C 119.546,315.853 123.546,318.186 127.5,320.5C 130.529,321.676 133.196,323.343 135.5,325.5C 132.455,325.296 129.621,325.296 127,325.5C 123.028,321.63 119.194,317.63 115.5,313.5 Z"/></g>
<g><path style="opacity:1" fill="#c01841" d="M 280.5,319.5 C 282.545,320.923 283.545,322.923 283.5,325.5C 280.253,324.482 279.253,322.482 280.5,319.5 Z"/></g>
<g><path style="opacity:1" fill="#d62e2d" d="M 277.5,317.5 C 278.833,317.5 279.5,318.167 279.5,319.5C 275.382,320.864 271.382,322.531 267.5,324.5C 265.257,325.474 262.924,325.808 260.5,325.5C 260.5,324.833 260.833,324.5 261.5,324.5C 264.162,323.501 266.828,322.501 269.5,321.5C 270.833,321.5 271.5,320.833 271.5,319.5C 273.5,318.833 275.5,318.167 277.5,317.5 Z"/></g>
<g><path style="opacity:1" fill="#d81b1d" d="M 101.5,315.5 C 100.167,319.5 98.8333,323.5 97.5,327.5C 96.1667,327.5 94.8333,327.5 93.5,327.5C 94.6443,323.989 96.311,320.656 98.5,317.5C 99.2652,316.388 100.265,315.721 101.5,315.5 Z"/></g>
<g><path style="opacity:1" fill="#9f504a" d="M 255.5,327.5 C 255.631,328.239 255.464,328.906 255,329.5C 253.374,329.146 251.541,329.146 249.5,329.5C 251.214,328.262 253.214,327.595 255.5,327.5 Z"/></g>
<g><path style="opacity:1" fill="#eb1617" d="M 331.5,327.5 C 333.264,328.326 334.598,329.659 335.5,331.5C 335.5,333.5 335.5,335.5 335.5,337.5C 328.348,344.655 320.348,350.655 311.5,355.5C 312.471,349.861 315.804,347.194 321.5,347.5C 321.663,345.143 321.497,342.81 321,340.5C 319.984,341.634 319.317,341.301 319,339.5C 318.184,340.823 317.017,341.489 315.5,341.5C 318.573,337.583 321.906,333.75 325.5,330C 327.169,328.331 329.169,327.498 331.5,327.5 Z"/></g>
<g><path style="opacity:1" fill="#c72422" d="M 143.5,327.5 C 144.609,327.557 145.609,327.89 146.5,328.5C 148.368,329.263 150.035,330.263 151.5,331.5C 147.741,332.042 145.074,330.708 143.5,327.5 Z"/></g>
<g><path style="opacity:1" fill="#f9f8f7" d="M 177.5,337.5 C 174.237,336.518 170.903,335.851 167.5,335.5C 167.5,333.833 167.5,332.167 167.5,330.5C 170.833,330.5 174.167,330.5 177.5,330.5C 177.5,332.833 177.5,335.167 177.5,337.5 Z"/></g>
<g><path style="opacity:1" fill="#fbf5f3" d="M 208.5,337.5 C 205.167,338.833 201.833,338.833 198.5,337.5C 198.5,335.167 198.5,332.833 198.5,330.5C 201.833,330.5 205.167,330.5 208.5,330.5C 208.5,332.833 208.5,335.167 208.5,337.5 Z"/></g>
<g><path style="opacity:1" fill="#f6e8ea" d="M 245.5,330.5 C 244.122,331.234 242.622,331.901 241,332.5C 240.601,332.272 240.435,331.938 240.5,331.5C 241.919,330.549 243.585,330.216 245.5,330.5 Z"/></g>
<g><path style="opacity:1" fill="#dd172e" d="M 283.5,325.5 C 284.735,325.721 285.735,326.388 286.5,327.5C 288.689,330.656 290.356,333.989 291.5,337.5C 286.383,335.063 283.716,331.063 283.5,325.5 Z"/></g>
<g><path style="opacity:1" fill="#c82725" d="M 249.5,329.5 C 249.279,330.735 248.612,331.735 247.5,332.5C 244.914,333.48 242.247,333.813 239.5,333.5C 239.328,332.508 239.662,331.842 240.5,331.5C 240.435,331.938 240.601,332.272 241,332.5C 242.622,331.901 244.122,331.234 245.5,330.5C 246.568,329.566 247.901,329.232 249.5,329.5 Z"/></g>
<g><path style="opacity:1" fill="#a93638" d="M 335.5,331.5 C 339.5,333.5 339.5,335.5 335.5,337.5C 335.5,335.5 335.5,333.5 335.5,331.5 Z"/></g>
<g><path style="opacity:1" fill="#cb1d28" d="M 87.5,335.5 C 87.646,338.554 86.3126,340.554 83.5,341.5C 83.354,338.446 84.6874,336.446 87.5,335.5 Z"/></g>
<g><path style="opacity:1" fill="#871f23" d="M 183.5,337.5 C 188.5,337.5 193.5,337.5 198.5,337.5C 201.833,338.833 205.167,338.833 208.5,337.5C 209.167,337.5 209.833,337.5 210.5,337.5C 210.5,338.167 210.5,338.833 210.5,339.5C 201.105,340.138 192.105,339.471 183.5,337.5 Z"/></g>
<g><path style="opacity:1" fill="#d11d19" d="M 227.5,335.5 C 226.198,336.926 224.698,338.259 223,339.5C 219.045,339.371 214.878,339.371 210.5,339.5C 210.5,338.833 210.5,338.167 210.5,337.5C 213.713,337.81 216.713,337.477 219.5,336.5C 222.206,336.425 224.873,336.092 227.5,335.5 Z"/></g>
<g><path style="opacity:1" fill="#c21843" d="M 297.5,343.5 C 299.176,344.183 299.843,345.517 299.5,347.5C 297.824,346.817 297.157,345.483 297.5,343.5 Z"/></g>
<g><path style="opacity:1" fill="#a22e42" d="M 79.5,345.5 C 79.5,346.833 79.5,348.167 79.5,349.5C 78.4138,349.38 77.7472,348.713 77.5,347.5C 77.7472,346.287 78.4138,345.62 79.5,345.5 Z"/></g>
<g><path style="opacity:1" fill="#c81a3b" d="M 308.5,345.5 C 308.611,346.117 308.944,346.617 309.5,347C 307.167,348.5 304.833,350 302.5,351.5C 300.712,350.717 299.712,349.384 299.5,347.5C 302.664,347.442 305.664,346.776 308.5,345.5 Z"/></g>
<g><path style="opacity:1" fill="#ae373b" d="M 87.5,355.5 C 89.4832,355.157 90.8166,355.824 91.5,357.5C 89.5168,357.843 88.1834,357.176 87.5,355.5 Z"/></g>
<g><path style="opacity:1" fill="#bd252d" d="M 91.5,357.5 C 93.4832,357.157 94.8166,357.824 95.5,359.5C 93.5168,359.843 92.1834,359.176 91.5,357.5 Z"/></g>
<g><path style="opacity:1" fill="#9b4a5c" d="M 101.5,363.5 C 102.833,363.5 103.5,364.167 103.5,365.5C 103.5,364.167 102.833,363.5 101.5,363.5 Z"/></g>
<g><path style="opacity:1" fill="#a04063" d="M 105.5,365.5 C 106.833,365.5 107.5,366.167 107.5,367.5C 107.5,366.167 106.833,365.5 105.5,365.5 Z"/></g>
<g><path style="opacity:1" fill="#d62925" d="M 112.5,369.5 C 118.392,369.624 123.392,371.624 127.5,375.5C 121.895,374.64 116.895,372.64 112.5,369.5 Z"/></g>
<g><path style="opacity:1" fill="#ca302d" d="M 127.5,375.5 C 131.259,374.958 133.926,376.292 135.5,379.5C 134.833,379.5 134.167,379.5 133.5,379.5C 131.364,378.347 129.364,377.014 127.5,375.5 Z"/></g>
<g><path style="opacity:1" fill="#c96e68" d="M 267.5,377.5 C 266.833,378.167 266.167,378.833 265.5,379.5C 264.833,379.5 264.167,379.5 263.5,379.5C 264.183,377.824 265.517,377.157 267.5,377.5 Z"/></g>
</svg>
