<?xml version="1.0" encoding="UTF-8" standalone="no"?>
<svg
   version="1.0"
   width="379pt"
   height="145.76082pt"
   viewBox="0 0 379 145.76082"
   preserveAspectRatio="xMidYMid"
   id="svg50"
   sodipodi:docname="omori-vf.svg"
   inkscape:version="1.2.1 (9c6d41e410, 2022-07-14)"
   xmlns:inkscape="http://www.inkscape.org/namespaces/inkscape"
   xmlns:sodipodi="http://sodipodi.sourceforge.net/DTD/sodipodi-0.dtd"
   xmlns="http://www.w3.org/2000/svg"
   xmlns:svg="http://www.w3.org/2000/svg">
  <defs
     id="defs54" />
  <sodipodi:namedview
     id="namedview52"
     pagecolor="#505050"
     bordercolor="#eeeeee"
     borderopacity="1"
     inkscape:showpageshadow="0"
     inkscape:pageopacity="0"
     inkscape:pagecheckerboard="0"
     inkscape:deskcolor="#505050"
     inkscape:document-units="pt"
     showgrid="false"
     inkscape:zoom="1.5405"
     inkscape:cx="369.3606"
     inkscape:cy="330.73677"
     inkscape:window-width="4096"
     inkscape:window-height="2071"
     inkscape:window-x="-9"
     inkscape:window-y="-9"
     inkscape:window-maximized="1"
     inkscape:current-layer="svg50" />
  <g
     transform="matrix(0.1,0,0,-0.1,-90,330.76083)"
     fill="#000000"
     stroke="none"
     id="g48">
    <path
       d="m 3448,3299 c -16,-9 -18,-28 -18,-173 0,-129 3,-166 14,-175 11,-9 15,-44 18,-136 2,-100 6,-127 21,-142 14,-16 17,-38 17,-119 0,-117 5,-141 32,-149 41,-14 48,9 48,151 0,115 -3,138 -19,165 -31,50 -15,69 57,69 36,0 66,-6 78,-15 12,-9 43,-14 87,-15 71,0 109,-13 141,-49 11,-12 39,-30 62,-41 38,-16 47,-28 86,-106 47,-95 87,-136 116,-118 9,6 18,25 20,43 9,84 -139,262 -268,323 -39,18 -70,36 -70,41 0,4 15,14 33,22 17,7 67,49 111,93 69,71 79,85 83,124 7,57 -9,87 -82,158 l -56,55 -247,2 c -158,2 -253,-1 -264,-8 z m 432,-84 c 14,-7 41,-21 60,-30 92,-42 93,-78 8,-161 -77,-74 -153,-114 -215,-114 -29,0 -58,-8 -80,-21 -25,-16 -42,-19 -68,-15 -30,6 -35,11 -40,44 -4,20 -15,55 -26,78 -14,30 -19,63 -19,118 0,115 2,116 198,116 117,0 163,-4 182,-15 z"
       id="path2" />
    <path
       d="m 1708,3179 c -28,-16 -26,-192 2,-234 18,-27 20,-47 20,-190 0,-141 -2,-165 -20,-198 -29,-54 -29,-211 -1,-227 25,-13 27,-13 45,6 12,11 16,35 16,87 0,53 5,79 18,97 14,21 18,55 22,199 3,103 9,176 15,178 6,1 25,-30 44,-70 18,-39 55,-94 80,-122 26,-27 53,-62 59,-77 11,-26 15,-28 75,-28 h 64 l 66,69 c 37,38 67,77 67,86 0,19 117,145 136,145 6,0 15,-7 18,-16 3,-9 6,-125 6,-259 0,-200 3,-245 15,-255 19,-16 54,-3 60,23 3,12 5,174 3,360 -3,373 -1,360 -68,355 -28,-2 -38,-9 -49,-33 -8,-16 -29,-47 -47,-68 -19,-20 -34,-44 -34,-54 0,-9 -48,-65 -107,-124 -126,-129 -139,-133 -201,-65 -22,23 -43,54 -47,67 -4,13 -13,31 -20,39 -7,8 -16,26 -20,40 -4,14 -20,39 -36,55 -15,17 -35,47 -43,67 -9,20 -20,39 -25,42 -5,4 -12,20 -16,36 -4,16 -20,41 -37,55 -33,28 -36,29 -60,14 z"
       id="path4" />
    <path
       d="m 1065,3116 c -58,-30 -62,-35 -112,-135 l -53,-104 v -121 -121 l 50,-102 c 34,-67 65,-114 91,-138 l 41,-36 159,3 160,3 65,66 c 53,55 64,73 64,100 0,19 9,48 20,64 17,26 20,48 20,170 l 1,140 -48,96 c -46,91 -50,97 -103,122 -51,25 -64,27 -175,26 -115,-1 -123,-2 -180,-33 z m 286,-74 c 43,-25 55,-39 94,-117 43,-83 45,-92 45,-170 0,-78 -2,-87 -45,-171 -39,-78 -51,-92 -93,-116 -39,-22 -60,-27 -120,-27 l -74,-1 -69,67 c -38,36 -69,71 -69,77 0,6 -9,28 -20,49 -28,51 -28,160 0,202 11,17 20,45 20,64 0,29 11,45 68,103 l 69,68 h 72 c 61,0 79,-4 122,-28 z"
       id="path6" />
    <path
       d="m 2813,3121 c -68,-36 -90,-57 -98,-91 -3,-16 -12,-34 -20,-40 -8,-6 -17,-24 -20,-40 -3,-16 -13,-34 -21,-41 -11,-9 -14,-41 -14,-147 v -135 l 47,-94 c 30,-61 61,-107 89,-133 l 44,-40 h 152 152 l 73,73 c 61,62 73,79 73,107 0,18 9,48 21,66 19,31 20,46 17,178 -2,117 -6,147 -20,162 -9,11 -19,31 -23,46 -4,15 -13,32 -20,38 -8,6 -16,23 -20,38 -4,21 -19,34 -63,55 -53,25 -66,27 -177,26 -110,-1 -124,-3 -172,-28 z m 267,-78 c 53,-25 57,-30 103,-122 42,-87 47,-103 47,-166 0,-62 -5,-79 -47,-166 -45,-92 -49,-98 -100,-123 -59,-29 -156,-36 -196,-14 -40,21 -116,109 -147,169 -36,72 -40,141 -11,203 11,23 22,57 26,77 4,28 21,51 74,103 l 69,66 h 64 c 48,0 76,-6 118,-27 z"
       id="path8" />
    <path
       d="m 4400,3084 c -75,-39 -82,-50 -54,-78 10,-11 34,-16 69,-16 43,0 56,-4 65,-19 6,-12 10,-96 10,-203 0,-166 -2,-186 -20,-213 -11,-16 -20,-44 -20,-61 0,-39 -16,-54 -56,-54 -31,0 -64,-21 -64,-40 0,-5 7,-16 16,-24 13,-13 42,-16 164,-16 122,0 151,3 164,16 35,35 4,64 -68,64 -74,0 -86,16 -58,74 21,40 22,58 22,268 0,161 3,227 12,236 7,7 27,12 44,12 31,0 64,21 64,40 0,5 -7,16 -16,24 -12,13 -38,16 -122,15 -93,0 -113,-4 -152,-25 z"
       id="path10" />
    <path
       d="m 2744,2239 c -3,-6 -9,-43 -13,-82 -6,-70 -7,-72 -36,-77 -17,-3 -31,-12 -33,-22 -2,-12 4,-16 30,-15 32,2 33,1 41,-50 12,-72 32,-70 23,2 l -6,55 h 42 c 48,0 83,15 58,24 -8,3 -33,7 -55,8 -39,3 -40,4 -43,42 -4,47 15,96 36,96 9,0 28,-12 44,-27 25,-24 28,-25 34,-8 16,40 -99,91 -122,54 z"
       id="path12" />
    <path
       d="m 950,2182 c 0,-11 7,-25 15,-32 8,-7 15,-17 15,-23 0,-30 54,-177 70,-192 18,-16 22,-16 42,-3 13,9 40,51 61,94 21,44 43,87 48,96 11,22 12,55 0,62 -8,5 -51,-81 -51,-103 0,-6 -16,-36 -36,-67 -33,-51 -37,-54 -53,-40 -9,8 -22,41 -29,73 -20,93 -82,196 -82,135 z"
       id="path14" />
    <path
       d="m 1926,2182 c -3,-6 -1,-14 5,-17 15,-10 25,3 12,16 -7,7 -13,7 -17,1 z"
       id="path16" />
    <path
       d="m 4070,2170 c 0,-5 5,-10 10,-10 6,0 10,5 10,10 0,6 -4,10 -10,10 -5,0 -10,-4 -10,-10 z"
       id="path18" />
    <path
       d="m 3150,2140 c -11,-11 -20,-24 -20,-29 0,-20 18,-20 35,-1 13,14 31,20 60,20 35,0 44,-4 53,-25 22,-47 17,-51 -61,-47 -84,5 -96,-3 -100,-64 l -2,-39 97,-3 c 116,-3 118,-1 109,102 -5,55 -11,72 -30,87 -33,27 -114,26 -141,-1 z m 119,-126 c 32,-23 12,-34 -61,-34 -50,0 -58,3 -58,18 0,10 3,22 7,25 13,13 89,7 112,-9 z"
       id="path20" />
    <path
       d="m 3849,2142 c -15,-13 -20,-25 -15,-37 6,-17 8,-17 29,4 34,31 90,29 111,-5 27,-40 17,-48 -65,-48 l -74,-1 -18,-38 c -29,-58 -15,-67 98,-67 108,0 107,-1 98,97 -7,89 -28,113 -94,113 -31,0 -55,-6 -70,-18 z m 106,-124 c 49,-22 24,-38 -61,-38 -38,0 -54,4 -54,13 0,35 62,49 115,25 z"
       id="path22" />
    <path
       d="m 1309,2135 c -39,-21 -59,-59 -59,-109 0,-57 24,-76 97,-76 63,0 103,14 103,36 0,12 -5,15 -22,9 -50,-15 -118,-17 -133,-5 -22,18 -19,50 4,50 11,0 23,5 26,10 3,6 31,10 61,10 51,0 55,2 52,22 -3,24 -61,68 -87,68 -9,-1 -28,-7 -42,-15 z m 62,-25 c 32,-18 21,-30 -26,-30 -47,0 -58,12 -27,29 22,13 29,13 53,1 z"
       id="path24" />
    <path
       d="m 1497,2143 c -18,-18 0,-193 19,-193 10,0 14,16 14,58 0,49 4,62 24,81 19,18 30,21 60,16 32,-6 35,-5 30,10 -6,14 -16,16 -60,13 -38,-3 -55,-1 -58,9 -6,14 -19,17 -29,6 z"
       id="path26" />
    <path
       d="m 1736,2134 c -50,-49 -19,-104 59,-104 79,0 79,-52 0,-70 -33,-8 -43,-6 -61,11 -11,10 -26,19 -32,19 -23,0 -12,-25 22,-48 31,-21 37,-22 82,-10 66,16 74,24 74,68 0,47 -12,56 -78,62 -65,6 -72,13 -44,40 21,21 23,21 49,7 30,-18 53,-15 53,5 0,32 -97,48 -124,20 z"
       id="path28" />
    <path
       d="m 2049,2121 c -23,-24 -29,-38 -29,-74 0,-60 40,-97 104,-97 62,0 86,29 86,102 0,49 -3,59 -26,77 -41,32 -98,28 -135,-8 z m 119,-17 c 47,-33 16,-124 -42,-124 -37,0 -56,10 -70,39 -33,66 49,129 112,85 z"
       id="path30" />
    <path
       d="m 2917,2143 c -9,-8 -8,-96 1,-147 12,-65 32,-57 32,11 0,49 4,63 23,81 24,23 61,29 72,12 10,-16 25,-2 18,16 -5,13 -17,15 -59,12 -38,-3 -55,-1 -58,9 -6,14 -19,17 -29,6 z"
       id="path32" />
    <path
       d="m 3658,2134 c -37,-19 -48,-43 -48,-101 0,-58 14,-81 55,-85 l 30,-3 -32,-18 c -51,-27 -39,-77 17,-77 30,0 69,25 57,36 -4,4 -13,2 -19,-4 -15,-15 -55,-16 -63,-2 -9,15 14,40 36,40 11,0 19,7 19,15 0,8 9,15 21,15 24,0 59,17 59,29 0,5 -30,8 -67,8 -63,-2 -68,0 -82,25 -14,24 -14,30 2,62 18,38 48,47 87,26 30,-16 37,10 9,31 -29,22 -45,23 -81,3 z"
       id="path34" />
    <path
       d="m 4206,2128 c -22,-31 -20,-75 3,-88 11,-5 37,-10 59,-10 78,0 78,-49 1,-70 -33,-9 -41,-8 -59,10 -21,21 -50,27 -50,11 0,-5 14,-21 32,-36 22,-19 37,-24 52,-20 12,4 35,9 51,12 41,7 65,31 65,63 0,38 -26,56 -89,63 -29,4 -56,9 -59,12 -8,8 29,45 46,45 9,0 23,-7 33,-16 19,-17 39,-12 39,10 0,17 -43,36 -80,36 -18,0 -34,-8 -44,-22 z"
       id="path36" />
    <path
       d="m 4447,2134 c -34,-18 -47,-50 -47,-113 0,-42 3,-49 25,-59 55,-25 165,-9 165,24 0,11 -5,14 -17,9 -10,-3 -39,-9 -66,-12 -37,-5 -52,-2 -67,12 -25,23 -26,45 -1,45 11,0 23,5 26,10 3,6 31,10 61,10 49,0 54,2 54,23 0,25 -54,67 -86,67 -10,-1 -32,-8 -47,-16 z m 64,-24 c 32,-18 21,-30 -26,-30 -48,0 -59,15 -22,30 29,11 26,11 48,0 z"
       id="path38" />
    <path
       d="m 2254,2107 c -10,-27 1,-150 14,-155 8,-2 12,9 12,35 0,49 21,78 65,93 56,18 69,1 61,-77 -4,-39 -3,-63 3,-63 32,0 41,101 15,152 -15,29 -18,30 -62,24 -25,-3 -51,-11 -56,-16 -14,-14 -26,-12 -26,5 0,19 -19,20 -26,2 z"
       id="path40" />
    <path
       d="m 3370,2034 c 0,-64 3,-85 13,-82 6,3 15,23 18,45 6,49 19,66 60,83 25,11 32,10 49,-5 23,-20 26,-65 8,-95 -10,-15 -10,-22 0,-32 10,-10 15,-10 22,2 13,20 13,127 0,151 -13,24 -63,25 -104,4 -27,-14 -31,-14 -38,0 -19,33 -28,11 -28,-71 z"
       id="path42" />
    <path
       d="m 1953,2103 c -16,-6 -18,-163 -3,-163 6,0 10,25 10,56 0,30 5,65 11,76 12,22 2,38 -18,31 z"
       id="path44" />
    <path
       d="m 4092,2098 c -17,-17 -16,-161 1,-156 13,5 29,148 18,161 -4,4 -12,2 -19,-5 z"
       id="path46" />
  </g>
</svg>
